<?xml version="1.0" encoding="UTF-8"?><svg id="Layer_1" xmlns="http://www.w3.org/2000/svg" viewBox="0 0 962.44 211.73"><defs><style>.cls-1{fill:#323232;}.cls-2{isolation:isolate;}</style></defs><g class="cls-2"><path class="cls-1" d="m27.04,22.78V.38h2.69v9.66h10.85V.38h2.69v22.4h-2.69v-10.3h-10.85v10.3h-2.69Z"/><path class="cls-1" d="m47.49,22.78V.38h13.98v2.43h-11.3v7.46h10.34v2.43h-10.34v7.65h11.3v2.43h-13.98Z"/><path class="cls-1" d="m66.72,22.78V.38h2.69v19.97h11.36v2.43h-14.05Z"/><path class="cls-1" d="m85.92,22.78V.38h2.69v19.97h11.36v2.43h-14.05Z"/><path class="cls-1" d="m111.93,23.17c-1.81,0-3.37-.48-4.67-1.44-1.3-.96-2.3-2.31-2.99-4.05-.69-1.74-1.04-3.77-1.04-6.1s.35-4.36,1.04-6.1c.69-1.74,1.69-3.09,2.99-4.05,1.3-.96,2.86-1.44,4.67-1.44s3.37.48,4.67,1.44,2.3,2.31,2.99,4.05c.69,1.74,1.04,3.77,1.04,6.1s-.35,4.36-1.04,6.1c-.69,1.74-1.69,3.09-2.99,4.05s-2.86,1.44-4.67,1.44Zm0-2.53c1.77,0,3.21-.79,4.3-2.37s1.65-3.81,1.65-6.69-.55-5.11-1.65-6.69-2.53-2.37-4.3-2.37-3.23.79-4.32,2.37c-1.09,1.58-1.63,3.81-1.63,6.69s.54,5.11,1.63,6.69c1.09,1.58,2.53,2.37,4.32,2.37Z"/><path class="cls-1" d="m126.78,26.69l2.82-8.61h3.55l-3.81,8.61h-2.56Z"/><path class="cls-1" d="m163.1,22.78v-2.34h5.09V2.72h-5.09V.38h12.86v2.34h-5.09v17.73h5.09v2.34h-12.86Z"/><path class="cls-1" d="m186.27,9.34l2.14-8.96h3.46l-3.17,8.96h-2.43Z"/><path class="cls-1" d="m199.93,22.78V.38h2.88l5.12,10.66,5.12-10.66h2.88v22.4h-2.62V5.57l-4.35,9.06h-2.05l-4.35-9.02v17.18h-2.62Z"/></g><g class="cls-2"><path class="cls-1" d="m35.39,209.23c-2.2,0-3.88-.62-5.06-1.87s-1.76-2.97-1.76-5.17h2.72c.02,1.26.35,2.33.99,3.22.64.89,1.66,1.33,3.07,1.33s2.42-.43,3.02-1.28.91-1.92.91-3.2v-15.81h2.69v15.81c0,2.24-.58,3.96-1.73,5.17-1.15,1.21-2.77,1.81-4.86,1.81Z"/><path class="cls-1" d="m54.3,209.23c-1.49,0-2.82-.31-3.98-.93-1.16-.62-2.08-1.56-2.75-2.83-.67-1.27-1.01-2.86-1.01-4.78v-14.24h2.69v14.34c0,1.92.47,3.4,1.41,4.45.94,1.05,2.18,1.57,3.71,1.57s2.76-.52,3.68-1.57c.92-1.04,1.38-2.53,1.38-4.45v-14.34h2.69v14.24c0,1.92-.34,3.52-1.02,4.78-.68,1.27-1.61,2.21-2.78,2.83s-2.51.93-4,.93Z"/><path class="cls-1" d="m65.76,208.85v-22.4h2.75l10.18,17.7v-17.7h2.66v22.4h-2.78l-10.18-17.7v17.7h-2.62Z"/><path class="cls-1" d="m86.3,208.85v-2.34h5.09v-17.73h-5.09v-2.34h12.86v2.34h-5.09v17.73h5.09v2.34h-12.86Z"/><path class="cls-1" d="m111.93,209.23c-1.81,0-3.37-.48-4.67-1.44-1.3-.96-2.3-2.31-2.99-4.05-.69-1.74-1.04-3.77-1.04-6.1s.35-4.36,1.04-6.1c.69-1.74,1.69-3.09,2.99-4.05,1.3-.96,2.86-1.44,4.67-1.44s3.37.48,4.67,1.44,2.3,2.31,2.99,4.05c.69,1.74,1.04,3.77,1.04,6.1s-.35,4.36-1.04,6.1c-.69,1.74-1.69,3.09-2.99,4.05s-2.86,1.44-4.67,1.44Zm0-2.53c1.77,0,3.21-.79,4.3-2.37s1.65-3.81,1.65-6.69-.55-5.11-1.65-6.69-2.53-2.37-4.3-2.37-3.23.79-4.32,2.37c-1.09,1.58-1.63,3.81-1.63,6.69s.54,5.11,1.63,6.69c1.09,1.58,2.53,2.37,4.32,2.37Z"/><path class="cls-1" d="m124.16,208.85v-22.4h6.88c1.73,0,3.15.29,4.27.86s1.96,1.36,2.51,2.35c.55.99.83,2.12.83,3.38,0,1.47-.38,2.77-1.14,3.89s-1.92,1.9-3.47,2.35l4.86,9.57h-3.2l-4.51-9.18h-4.35v9.18h-2.69Zm2.69-11.65h4.1c1.71,0,2.96-.39,3.76-1.17.8-.78,1.2-1.78,1.2-2.99,0-1.28-.39-2.29-1.17-3.04-.78-.75-2.05-1.12-3.82-1.12h-4.06v8.32Z"/><path class="cls-1" d="m162.84,208.85v-22.4h13.98v2.5h-11.3v7.81h9.66v2.4h-9.66v9.7h-2.69Z"/><path class="cls-1" d="m181.76,208.85v-22.4h6.88c1.73,0,3.15.29,4.27.86s1.96,1.36,2.51,2.35c.55.99.83,2.12.83,3.38,0,1.47-.38,2.77-1.14,3.89s-1.92,1.9-3.47,2.35l4.86,9.57h-3.2l-4.51-9.18h-4.35v9.18h-2.69Zm2.69-11.65h4.1c1.71,0,2.96-.39,3.76-1.17.8-.78,1.2-1.78,1.2-2.99,0-1.28-.39-2.29-1.17-3.04-.78-.75-2.05-1.12-3.82-1.12h-4.06v8.32Z"/><path class="cls-1" d="m207.93,209.23c-1.81,0-3.37-.48-4.67-1.44-1.3-.96-2.3-2.31-2.99-4.05-.69-1.74-1.04-3.77-1.04-6.1s.35-4.36,1.04-6.1c.69-1.74,1.69-3.09,2.99-4.05,1.3-.96,2.86-1.44,4.67-1.44s3.37.48,4.67,1.44,2.3,2.31,2.99,4.05c.69,1.74,1.04,3.77,1.04,6.1s-.35,4.36-1.04,6.1c-.69,1.74-1.69,3.09-2.99,4.05s-2.86,1.44-4.67,1.44Zm0-2.53c1.77,0,3.21-.79,4.3-2.37s1.65-3.81,1.65-6.69-.55-5.11-1.65-6.69-2.53-2.37-4.3-2.37-3.23.79-4.32,2.37c-1.09,1.58-1.63,3.81-1.63,6.69s.54,5.11,1.63,6.69c1.09,1.58,2.53,2.37,4.32,2.37Z"/><path class="cls-1" d="m219.36,208.85v-22.4h2.75l10.18,17.7v-17.7h2.66v22.4h-2.78l-10.18-17.7v17.7h-2.62Z"/><path class="cls-1" d="m244.99,208.85v-19.97h-6.02v-2.43h14.72v2.43h-6.02v19.97h-2.69Z"/><path class="cls-1" d="m277.88,208.85v-22.4h13.98v2.43h-11.3v7.46h10.34v2.43h-10.34v7.65h11.3v2.43h-13.98Z"/><path class="cls-1" d="m296.15,208.85v-22.4h2.75l10.18,17.7v-17.7h2.66v22.4h-2.78l-10.18-17.7v17.7h-2.62Z"/><path class="cls-1" d="m315.64,208.85v-22.4h4.7c3.67,0,6.38,1,8.14,3.01,1.76,2,2.64,4.74,2.64,8.19s-.88,6.19-2.64,8.19-4.47,3.01-8.14,3.01h-4.7Zm2.69-2.46h1.95c1.96,0,3.54-.36,4.72-1.09,1.19-.73,2.04-1.74,2.58-3.04.53-1.3.8-2.84.8-4.61s-.27-3.31-.8-4.61c-.53-1.3-1.39-2.31-2.58-3.04-1.18-.73-2.76-1.09-4.72-1.09h-1.95v17.47Z"/><path class="cls-1" d="m354.04,208.85v-22.4h4.7c3.67,0,6.38,1,8.14,3.01,1.76,2,2.64,4.74,2.64,8.19s-.88,6.19-2.64,8.19-4.47,3.01-8.14,3.01h-4.7Zm2.69-2.46h1.95c1.96,0,3.54-.36,4.72-1.09,1.18-.73,2.04-1.74,2.58-3.04.53-1.3.8-2.84.8-4.61s-.27-3.31-.8-4.61c-.53-1.3-1.39-2.31-2.58-3.04-1.18-.73-2.76-1.09-4.72-1.09h-1.95v17.47Z"/><path class="cls-1" d="m373.88,208.85v-22.4h13.98v2.43h-11.3v7.46h10.34v2.43h-10.34v7.65h11.3v2.43h-13.98Z"/><path class="cls-1" d="m398.33,208.85l-7.14-22.4h2.88l5.86,18.91,5.86-18.91h2.91l-7.17,22.4h-3.2Z"/><path class="cls-1" d="m412.28,208.85v-22.4h13.98v2.43h-11.3v7.46h10.34v2.43h-10.34v7.65h11.3v2.43h-13.98Z"/><path class="cls-1" d="m431.51,208.85v-22.4h2.69v19.97h11.36v2.43h-14.05Z"/><path class="cls-1" d="m457.53,209.23c-1.81,0-3.37-.48-4.67-1.44s-2.3-2.31-2.99-4.05c-.69-1.74-1.04-3.77-1.04-6.1s.35-4.36,1.04-6.1c.69-1.74,1.69-3.09,2.99-4.05s2.86-1.44,4.67-1.44,3.37.48,4.67,1.44c1.3.96,2.3,2.31,2.99,4.05.69,1.74,1.04,3.77,1.04,6.1s-.35,4.36-1.04,6.1c-.69,1.74-1.69,3.09-2.99,4.05-1.3.96-2.86,1.44-4.67,1.44Zm0-2.53c1.77,0,3.21-.79,4.3-2.37,1.1-1.58,1.65-3.81,1.65-6.69s-.55-5.11-1.65-6.69c-1.1-1.58-2.53-2.37-4.3-2.37s-3.23.79-4.32,2.37-1.63,3.81-1.63,6.69.54,5.11,1.63,6.69,2.53,2.37,4.32,2.37Z"/><path class="cls-1" d="m469.5,208.85v-22.4h7.46c1.71,0,3.1.31,4.19.93s1.89,1.44,2.4,2.46c.51,1.02.77,2.16.77,3.39s-.26,2.37-.77,3.39c-.51,1.02-1.31,1.84-2.4,2.46s-2.49.93-4.19.93h-4.77v8.83h-2.69Zm2.69-11.3h4.7c1.58,0,2.75-.4,3.52-1.2.77-.8,1.15-1.84,1.15-3.12s-.38-2.33-1.15-3.14c-.77-.81-1.94-1.22-3.52-1.22h-4.7v8.67Z"/><path class="cls-1" d="m489.08,208.85v-22.4h13.98v2.43h-11.3v7.46h10.34v2.43h-10.34v7.65h11.3v2.43h-13.98Z"/><path class="cls-1" d="m508.15,208.85v-22.4h6.88c1.73,0,3.15.29,4.27.86s1.96,1.36,2.51,2.35c.55.99.83,2.12.83,3.38,0,1.47-.38,2.77-1.14,3.89-.76,1.12-1.92,1.9-3.47,2.35l4.86,9.57h-3.2l-4.51-9.18h-4.35v9.18h-2.69Zm2.69-11.65h4.1c1.71,0,2.96-.39,3.76-1.17.8-.78,1.2-1.78,1.2-2.99,0-1.28-.39-2.29-1.17-3.04-.78-.75-2.05-1.12-3.82-1.12h-4.06v8.32Z"/><path class="cls-1" d="m551.93,209.23c-1.37,0-2.57-.28-3.6-.85-1.04-.57-1.84-1.36-2.42-2.38-.58-1.02-.86-2.23-.86-3.62s.35-2.57,1.04-3.66c.69-1.1,1.69-2.02,2.99-2.77-.58-.83-1-1.62-1.26-2.37s-.4-1.5-.4-2.27c0-1.51.52-2.77,1.55-3.76,1.03-.99,2.44-1.49,4.21-1.49s3.07.48,4.08,1.44c1.01.96,1.52,2.18,1.52,3.65h-2.66c0-.85-.3-1.52-.9-2-.6-.48-1.29-.72-2.08-.72-.96,0-1.71.27-2.26.8-.54.53-.82,1.22-.82,2.05,0,.66.17,1.33.51,2.02.34.68.86,1.46,1.57,2.34l5.09,6.34,2.14-4.7h2.85l-3.23,6.88,3.78,4.7h-3.17l-1.98-2.4c-.64.85-1.42,1.53-2.35,2.03-.93.5-2.04.75-3.34.75Zm-4.19-6.91c0,1.28.39,2.35,1.17,3.2.78.85,1.79,1.28,3.02,1.28.9,0,1.66-.2,2.3-.61.64-.4,1.22-1,1.73-1.79l-5.41-6.56c-1.88,1.04-2.82,2.54-2.82,4.48Z"/><path class="cls-1" d="m591.89,209.23c-1.49,0-2.82-.31-3.98-.93-1.16-.62-2.08-1.56-2.75-2.83-.67-1.27-1.01-2.86-1.01-4.78v-14.24h2.69v14.34c0,1.92.47,3.4,1.41,4.45.94,1.05,2.18,1.57,3.71,1.57s2.76-.52,3.68-1.57c.92-1.04,1.38-2.53,1.38-4.45v-14.34h2.69v14.24c0,1.92-.34,3.52-1.02,4.78-.68,1.27-1.61,2.21-2.78,2.83-1.17.62-2.51.93-4,.93Z"/><path class="cls-1" d="m602.84,208.85l6.75-11.2-6.75-11.2h3.07l5.28,8.77,5.15-8.77h3.07l-6.78,11.17,6.78,11.23h-3.07l-5.31-8.8-5.12,8.8h-3.07Z"/><path class="cls-1" d="m623.38,211.73l11.07-27.2h2.82l-11.1,27.2h-2.78Z"/><path class="cls-1" d="m649.49,209.23c-1.49,0-2.82-.31-3.98-.93-1.16-.62-2.08-1.56-2.75-2.83-.67-1.27-1.01-2.86-1.01-4.78v-14.24h2.69v14.34c0,1.92.47,3.4,1.41,4.45.94,1.05,2.18,1.57,3.71,1.57s2.76-.52,3.68-1.57c.92-1.04,1.38-2.53,1.38-4.45v-14.34h2.69v14.24c0,1.92-.34,3.52-1.02,4.78-.68,1.27-1.61,2.21-2.78,2.83-1.17.62-2.51.93-4,.93Z"/><path class="cls-1" d="m662.29,208.85v-2.34h5.09v-17.73h-5.09v-2.34h12.86v2.34h-5.09v17.73h5.09v2.34h-12.86Z"/><path class="cls-1" d="m699.64,208.85v-22.4h4.7c3.67,0,6.38,1,8.14,3.01,1.76,2,2.64,4.74,2.64,8.19s-.88,6.19-2.64,8.19-4.47,3.01-8.14,3.01h-4.7Zm2.69-2.46h1.95c1.96,0,3.54-.36,4.72-1.09,1.18-.73,2.04-1.74,2.58-3.04.53-1.3.8-2.84.8-4.61s-.27-3.31-.8-4.61c-.53-1.3-1.39-2.31-2.58-3.04-1.18-.73-2.76-1.09-4.72-1.09h-1.95v17.47Z"/><path class="cls-1" d="m719.48,208.85v-22.4h13.98v2.43h-11.3v7.46h10.34v2.43h-10.34v7.65h11.3v2.43h-13.98Z"/><path class="cls-1" d="m745.75,209.23c-1.58,0-2.95-.3-4.11-.9-1.16-.6-2.06-1.43-2.69-2.5-.63-1.07-.96-2.31-.98-3.74h2.82c.02,1.28.45,2.38,1.3,3.31.84.93,2.06,1.39,3.66,1.39,1.47,0,2.61-.36,3.41-1.07.8-.71,1.2-1.57,1.2-2.58,0-.83-.19-1.53-.58-2.1-.38-.57-1.01-1.07-1.87-1.5-.86-.44-2.02-.89-3.47-1.36-2.05-.62-3.54-1.46-4.48-2.53-.94-1.07-1.41-2.39-1.41-3.97,0-1.07.28-2.03.83-2.88.55-.85,1.35-1.52,2.4-2.02,1.04-.49,2.31-.74,3.81-.74,1.41,0,2.64.26,3.7.78,1.06.52,1.88,1.25,2.46,2.19.59.94.88,2.02.88,3.23h-2.82c0-.6-.16-1.18-.48-1.76-.32-.58-.8-1.06-1.44-1.44-.64-.38-1.45-.58-2.43-.58-1.17,0-2.16.28-2.94.85s-1.18,1.34-1.18,2.32c0,.75.18,1.38.53,1.89.35.51.93.98,1.74,1.39s1.91.86,3.3,1.33c1.3.43,2.42.92,3.34,1.49.93.57,1.64,1.26,2.14,2.1s.75,1.87.75,3.1-.31,2.29-.93,3.23c-.62.94-1.48,1.68-2.59,2.22-1.11.54-2.4.82-3.87.82Z"/><path class="cls-1" d="m758.29,208.85v-2.34h5.09v-17.73h-5.09v-2.34h12.86v2.34h-5.09v17.73h5.09v2.34h-12.86Z"/><path class="cls-1" d="m783.7,209.23c-1.58,0-2.99-.46-4.22-1.39-1.24-.93-2.2-2.26-2.9-3.98-.69-1.73-1.04-3.8-1.04-6.21s.35-4.45,1.06-6.18c.7-1.73,1.7-3.06,2.99-4,1.29-.94,2.82-1.41,4.59-1.41,2.11,0,3.83.62,5.17,1.86,1.33,1.24,2.13,2.9,2.38,4.99h-2.98c-.21-1.28-.71-2.32-1.49-3.12-.78-.8-1.81-1.2-3.09-1.2-1.83,0-3.28.8-4.32,2.4-1.05,1.6-1.57,3.82-1.57,6.66s.52,5.11,1.57,6.69c1.04,1.58,2.4,2.37,4.06,2.37,1.2,0,2.18-.36,2.94-1.07s1.35-1.63,1.74-2.75c.39-1.12.61-2.28.66-3.47h-4.99v-2.3h7.74v11.74h-2.46l-.22-3.39h-.13c-.45,1.15-1.1,2.07-1.97,2.75s-2.04,1.02-3.54,1.02Z"/><path class="cls-1" d="m795.35,208.85v-22.4h2.75l10.18,17.7v-17.7h2.66v22.4h-2.78l-10.18-17.7v17.7h-2.62Z"/><path class="cls-1" d="m815.47,208.85v-22.4h13.98v2.43h-11.3v7.46h10.34v2.43h-10.34v7.65h11.3v2.43h-13.98Z"/><path class="cls-1" d="m834.55,208.85v-22.4h6.88c1.73,0,3.15.29,4.27.86s1.96,1.36,2.51,2.35c.55.99.83,2.12.83,3.38,0,1.47-.38,2.77-1.14,3.89-.76,1.12-1.92,1.9-3.47,2.35l4.86,9.57h-3.2l-4.51-9.18h-4.35v9.18h-2.69Zm2.69-11.65h4.1c1.71,0,2.96-.39,3.76-1.17.8-.78,1.2-1.78,1.2-2.99,0-1.28-.39-2.29-1.17-3.04-.78-.75-2.05-1.12-3.82-1.12h-4.06v8.32Z"/></g><path class="cls-1" d="m10.09,71.3c1.7,1.2,2.2,2.7,1.5,4.5-.5,1.8-1.8,2.7-3.8,2.5-.7-.2-1.3-.2-2-.2-.7-.2-1.4-.3-2.2-.5-1.3-.3-2.3-1.1-3-2.2-.7-1.3-.8-2.7-.2-4,.3-.8,1.1-1.8,2.2-3,1.3-1.3,2.8-2.7,4.2-4,1.4-1.3,2.9-2.6,4.2-3.8,1.5-1.2,2.6-2,3.2-2.5,10.8-8.6,22.3-15.7,34.6-21.6,12.3-6,25-11.2,38-15.5.8-.3,1.9-.8,3.2-1.2s2.8-.9,4.2-1.2c1.7-.3,3.2-.6,4.5-.8,1.5-.2,2.6-.1,3.2.2,1.7.7,2.5,1.8,2.5,3.5s-.8,2.8-2.5,3.5c-.5.2-1.2.2-2.2.2-3.5.5-7,1.4-10.5,2.8-9,3.2-17.9,6.7-26.8,10.5-8.8,3.7-17.3,7.9-25.5,12.8-4.8,2.8-9.5,5.9-14,9.2-4.2,3.4-8.5,6.9-12.8,10.8Zm38,101.5c-1.5,1.3-3,1.6-4.5.8-1.5-1-2.4-2.4-2.8-4.2-.3-2-.6-5.7-.8-11v-17.4c.2-6.2.3-11.9.5-17.2.2-5.5.3-9.2.5-11.2-.7.3-1.6.8-2.8,1.2-1,.5-2.1,1-3.2,1.5s-2.3.8-3.5,1c-1,.2-1.8.2-2.5,0-1.5-.5-2.3-1.5-2.5-3-.2-1.7.4-2.9,1.8-3.8.5-.3,1-.5,1.5-.5s1-.2,1.5-.5c3.2-1.2,6.5-2.6,10-4.2l1.5-34.5c-.5-.3-1-.8-1.5-1.2s-.8-1.1-1-1.8c-.2-.8.2-2.2,1-4s1.5-3.2,2-4c1-1.8,2.4-2.4,4.2-1.8,1.8.5,2.8,1.8,3,3.8,0,1.3-.1,3.9-.2,7.8,0,3.8-.2,7.9-.5,12.2-.2,4.3-.4,8.4-.8,12.2-.2,3.8-.2,6.4-.2,7.8,4.7-2,9.2-3.8,13.8-5.5,4.7-1.8,9.4-3.7,14.2-5.5,1.3-.5,2.4-.4,3.2.2.8.5,1.4,1.2,1.8,2s.3,1.8,0,2.8-1.2,1.8-2.5,2.2c-5.3,1.8-10.6,3.8-15.8,5.8-5,2-10,4.1-15,6.2-.3,7.8-.7,15.6-1,23.2-.2,7.7-.2,15.4,0,23.2,2.2.3,3.2,1.7,3.2,4,0,.7-.1,1.7-.2,3,0,1.3-.2,2.7-.5,4-.2,1.3-.4,2.6-.8,3.8s-.6,2.1-1.1,2.6Zm56.9-33.8c-2,.8-3.9.8-5.8-.2s-2.9-2.6-3.2-4.8c-.3-2,0-4.8,1-8.2,1-3.7,2.2-7.4,3.8-11.2,1.5-4,3-7.8,4.5-11.2,1.7-3.5,2.9-6.2,3.8-8,1.7-3.5,3.7-7.1,6-10.8,1.3-1.8,2.9-3.5,4.8-5,1.8-1.7,3.9-2.8,6.2-3.2,1.3-.3,3.1-.2,5.3.2,2.3.3,3.9,1.1,4.8,2.2,1.3,1.5,1.4,3.1.2,4.8-1,1.5-2.4,1.9-4.2,1.2-.2,0-.6-.2-1.2-.5-.5-.3-.8-.6-1-.8-1.8-.8-3.7-.3-5.5,1.5-1.7,1.8-3,3.7-4,5.5-1,1.7-2.4,4.4-4.2,8.2-1.8,3.7-3.7,7.7-5.5,12-1.7,4.2-3.2,8.2-4.8,12-1.3,3.8-2.1,6.8-2.2,8.8.7-.5,1.2-1,1.8-1.5.5-.7,1-1.2,1.5-1.8,2.3-2.8,4.4-5.7,6.2-8.5,1.8-3,3.7-6,5.5-9,.5-.8,1.3-2.3,2.5-4.5,1.3-2.2,2.8-4.5,4.2-7s2.9-4.8,4.2-7c1.3-2.3,2.2-3.8,2.8-4.5,1.2-1.5,2.6-2.5,4.2-3s3.2,0,4.5,1.5c1.2,1.3,1.8,2.9,2,4.8.2,1.7.3,3.3.5,5,.5,3.5.8,7,1,10.5.3,3.3.9,6.7,1.8,10,.5,2.3,1.2,4.7,2,7,1,2.2,1.9,4.3,2.8,6.5.5,1,.6,1.9.2,2.8s-.9,1.5-1.8,2c-.7.5-1.5.8-2.5.8-.8-.2-1.6-.7-2.2-1.5-.3-.5-.8-1.3-1.2-2.5s-1-2.4-1.5-3.8c-.5-1.5-1-2.8-1.5-4-.3-1.3-.6-2.2-.8-2.8-1.3-4.2-2.2-8.3-2.5-12.5s-.8-8.4-1.2-12.8c-3.8,6.3-7.6,12.7-11.2,19-3.5,6.3-7.6,12.4-12.2,18.2-1,1.3-2.2,2.6-3.5,3.8-1.5,1.1-2.9,1.8-4.4,2.3Zm66.1.5c-.8.5-1.8.6-2.8.2s-1.8-.9-2.2-1.8c-1.2-1.8-2-3.8-2.5-6-.5-2.3-.9-4.6-1.2-6.8-.3-3-.6-6-.8-9s-.3-6-.5-9c-.3-11.8-.2-23.5.2-35,.5-11.7,1.3-23.4,2.5-35.2.2-1,.5-1.8,1-2.5.7-.8,1.4-1.3,2.2-1.5s1.6,0,2.2.5c.8.3,1.5,1,2,2,.3.8.3,1.8,0,3-.2,1-.3,2-.5,3-1.2,12.3-2,24.7-2.5,37-.3,12.3-.1,24.8.8,37.2,0,2.5.2,5.2.8,8,3.3-11.5,7.7-22.7,13-33.5,2.3-4.3,4.8-8.4,7.5-12.2,2.8-3.8,6.2-7.2,10-10,1.3-.8,2.8-1.6,4.2-2.2,1.7-.7,3.2-.8,4.8-.5,1.3.2,2.4.8,3.2,2,1,1.2,1.8,2.5,2.2,4s.8,3.1,1,4.8c.3,1.7.5,3.2.5,4.8.3,5.3.2,10.8-.2,16.2s-1.2,10.9-2,16.2c-.5,3.3-1.2,6.7-2,10s-2,6.6-3.5,9.8c-1.2,2.2-2.5,3.8-4,5-2.3,1.7-4.8,1.8-7.5.2-2.5-1.5-4.6-3.3-6.2-5.5-2.2-2.8-4.2-5.7-6-8.5-1.7-2.8-3.2-5.7-4.8-8.5-.2.7-.6,1.9-1.2,3.8s-1.3,3.8-2,5.8c-.5,2-1,3.9-1.5,5.8s-.8,3.2-.8,4c0,2-.9,3.3-2.8,4-.2.2-.3.2-.5.2l-.1.2Zm13.7-31.5c.5,1.2,1.3,3,2.5,5.5,1.3,2.3,2.8,4.8,4.2,7.2,1.5,2.3,3.1,4.6,4.8,6.8,1.7,2,3.1,3.4,4.2,4.2.7-.5,1.2-1.4,1.8-2.8.7-1.5,1.2-3.1,1.8-4.8s.9-3.2,1.2-4.8c.3-1.7.6-2.9.8-3.8,1-4.8,1.7-9.7,2-14.5.5-4.8.8-9.7,1-14.5v-3c0-1.3-.1-2.7-.2-4-.2-1.5-.3-2.9-.5-4.2s-.4-2.2-.8-2.8c-2.3.7-4.8,2.3-7.2,5-2.3,2.7-4.6,5.8-6.8,9.2s-4.2,7-6,10.5c-1.7,3.5-3,6.4-4,8.8,0,.3.2.7.5,1,.3.4.6.7.7,1Zm54.4-44.2c-.3.2-1.1.2-2.2.2h-2c-1.2,0-2.1-.4-2.8-1.2s-1-1.7-1-2.5.3-1.7,1-2.5,1.6-1.2,2.8-1.2h2c1.2,0,1.9.1,2.2.2,1.7.7,2.5,1.8,2.5,3.5s-.8,2.8-2.5,3.5Zm-4,83c1.3,1.7,1.3,3.3,0,5-1.3,1.5-2.9,1.8-4.8.8-1-.7-1.8-1.5-2.2-2.5-.3-1.2-.7-2.4-1-3.8-1-4.8-1.5-9.8-1.5-14.8,0-1.8.1-4.8.2-9,.2-4.3.4-8.8.8-13.5.5-4.8,1-9.3,1.5-13.5.7-4.2,1.3-7.2,2-9,.3-1,.9-1.7,1.8-2,1-.5,1.9-.6,2.8-.2.8.2,1.5.7,2,1.5.7.7.9,1.6.8,2.8-.3,1-.6,2.1-.8,3.2-.2,1-.3,2-.5,3-.8,4.3-1.4,8.8-1.8,13.2-.3,4.3-.7,8.8-1,13.2-.2,3.2-.2,6.3-.2,9.5,0,3,.2,6.2.5,9.5.2.7.3,1.8.5,3.5.3,1.6.6,2.6.9,3.1Zm21-7.8c-2,.8-3.9.8-5.8-.2s-2.9-2.6-3.2-4.8c-.3-2,0-4.8,1-8.2,1-3.7,2.2-7.4,3.8-11.2,1.5-4,3-7.8,4.5-11.2,1.7-3.5,2.9-6.2,3.8-8,1.7-3.5,3.7-7.1,6-10.8,1.3-1.8,2.9-3.5,4.8-5,1.8-1.7,3.9-2.8,6.2-3.2,1.3-.3,3.1-.2,5.2.2,2.3.3,3.9,1.1,4.8,2.2,1.3,1.5,1.4,3.1.2,4.8-1,1.5-2.4,1.9-4.2,1.2-.2,0-.6-.2-1.2-.5-.5-.3-.8-.6-1-.8-1.8-.8-3.7-.3-5.5,1.5-1.7,1.8-3,3.7-4,5.5-1,1.7-2.4,4.4-4.2,8.2-1.8,3.7-3.7,7.7-5.5,12-1.7,4.2-3.2,8.2-4.8,12-1.3,3.8-2.1,6.8-2.2,8.8.7-.5,1.2-1,1.8-1.5.5-.7,1-1.2,1.5-1.8,2.3-2.8,4.4-5.7,6.2-8.5,1.8-3,3.7-6,5.5-9,.5-.8,1.3-2.3,2.5-4.5,1.3-2.2,2.8-4.5,4.2-7s2.9-4.8,4.2-7c1.3-2.3,2.2-3.8,2.8-4.5,1.2-1.5,2.6-2.5,4.2-3s3.2,0,4.5,1.5c1.2,1.3,1.8,2.9,2,4.8.2,1.7.3,3.3.5,5,.5,3.5.8,7,1,10.5.3,3.3.9,6.7,1.8,10,.5,2.3,1.2,4.7,2,7,1,2.2,1.9,4.3,2.8,6.5.5,1,.6,1.9.2,2.8s-.9,1.5-1.8,2c-.7.5-1.5.8-2.5.8-.8-.2-1.6-.7-2.2-1.5-.3-.5-.8-1.3-1.2-2.5s-1-2.4-1.5-3.8c-.5-1.5-1-2.8-1.5-4-.3-1.3-.6-2.2-.8-2.8-1.3-4.2-2.2-8.3-2.5-12.5s-.8-8.4-1.2-12.8c-3.8,6.3-7.6,12.7-11.2,19-3.5,6.3-7.6,12.4-12.2,18.2-1,1.3-2.2,2.6-3.5,3.8-1.5,1.1-2.8,1.8-4.3,2.3Zm105.3,6c-.8,2.2-2.2,3-4.2,2.5-2-.7-3.1-2.2-3.2-4.5-.2-1.3-.3-3.7-.5-7v-11.8c0-4.3-.1-8.9-.2-13.8,0-5-.1-9.7-.2-14,0-4.3-.1-8.2-.2-11.5-.2-3.5-.3-5.9-.5-7.2-1.8,1.8-3.5,3.8-5,6-1.3,2.2-2.8,4.3-4.2,6.5-3.5,5.5-6.6,11.2-9.2,17s-5.2,11.8-7.5,17.8c-.3.7-.8,1.9-1.5,3.8-.5,1.7-1.2,3.4-2,5.2-.7,1.8-1.4,3.6-2.2,5.2-.8,1.5-1.5,2.6-2,3.2-.8.8-1.8,1.3-3,1.5s-2.2-.2-3-1c-.8-.7-1.5-1.8-2-3.2-.3-1.7-.6-3.4-.8-5.2v-26.5c.2-3.7.2-7.1.2-10.2v-6.5c0-1.2.3-2.1,1-2.8.8-.7,1.7-1,2.5-1,.8-.2,1.7,0,2.5.5s1.3,1.3,1.5,2.5v11.5c0,3-.1,6.2-.2,9.8v15.5c3.2-8,6.6-15.9,10.2-23.8,3.7-8,7.9-15.5,12.8-22.5.8-1.2,1.8-2.5,2.8-4s2.1-2.9,3.2-4.2c1.3-1.3,2.7-2.4,4-3.2s2.7-1.1,4-.8c1.2.2,2.2.8,3,1.8s1.4,2,1.8,3c.5,1.7.8,4.2,1,7.8.3,3.5.6,7.5.8,12s.2,9.2.2,14.2c.2,5,.2,9.8.2,14.2v20c.2.5.3,1.1.5,1.8-.2.4-.3.9-.6,1.4Zm16.5-6c-2,.8-3.9.8-5.8-.2s-2.9-2.6-3.2-4.8c-.3-2,0-4.8,1-8.2,1-3.7,2.2-7.4,3.8-11.2,1.5-4,3-7.8,4.5-11.2,1.7-3.5,2.9-6.2,3.8-8,1.7-3.5,3.7-7.1,6-10.8,1.3-1.8,2.9-3.5,4.8-5,1.8-1.7,3.9-2.8,6.2-3.2,1.3-.3,3.1-.2,5.2.2,2.3.3,3.9,1.1,4.8,2.2,1.3,1.5,1.4,3.1.2,4.8-1,1.5-2.4,1.9-4.2,1.2-.2,0-.6-.2-1.2-.5-.5-.3-.8-.6-1-.8-1.8-.8-3.7-.3-5.5,1.5-1.7,1.8-3,3.7-4,5.5-1,1.7-2.4,4.4-4.2,8.2-1.8,3.7-3.7,7.7-5.5,12-1.7,4.2-3.2,8.2-4.8,12-1.3,3.8-2.1,6.8-2.2,8.8.7-.5,1.2-1,1.8-1.5.5-.7,1-1.2,1.5-1.8,2.3-2.8,4.4-5.7,6.2-8.5,1.8-3,3.7-6,5.5-9,.5-.8,1.3-2.3,2.5-4.5,1.3-2.2,2.8-4.5,4.2-7s2.9-4.8,4.2-7c1.3-2.3,2.2-3.8,2.8-4.5,1.2-1.5,2.6-2.5,4.2-3s3.2,0,4.5,1.5c1.2,1.3,1.8,2.9,2,4.8.2,1.7.3,3.3.5,5,.5,3.5.8,7,1,10.5.3,3.3.9,6.7,1.8,10,.5,2.3,1.2,4.7,2,7,1,2.2,1.9,4.3,2.8,6.5.5,1,.6,1.9.2,2.8s-.9,1.5-1.8,2c-.7.5-1.5.8-2.5.8-.8-.2-1.6-.7-2.2-1.5-.3-.5-.8-1.3-1.2-2.5s-1-2.4-1.5-3.8c-.5-1.5-1-2.8-1.5-4-.3-1.3-.6-2.2-.8-2.8-1.3-4.2-2.2-8.3-2.5-12.5s-.8-8.4-1.2-12.8c-3.8,6.3-7.6,12.7-11.2,19-3.5,6.3-7.6,12.4-12.2,18.2-1,1.3-2.2,2.6-3.5,3.8-1.5,1.1-2.8,1.8-4.3,2.3Zm102.9,51c-1,.8-2,1.1-3,.8-1-.2-1.8-.6-2.5-1.2-.5-.7-.8-1.5-.8-2.5s.5-1.9,1.5-2.8c2.8-2.3,5.7-4.7,8.5-7,2.8-2.5,5.6-5.2,8.2-8,5.8-6,11.4-12.2,16.8-18.8,5.5-6.7,10.8-13.4,16-20.2,5.5-7.3,10.8-14.7,16-22,5.2-7.5,10-15.2,14.5-23.2,2.5-4.7,4.8-9.4,6.8-14.2,2.2-4.8,3.9-9.8,5.2-15,.5-2.3.8-4.8,1-7.2s-.2-4.9-1-7.2c-1.7-4.7-4.8-7.8-9.5-9.5-5.2-2-10.7-2.8-16.5-2.2-5.7.5-11.2,1.6-16.5,3.2-8.3,2.8-16.1,6.9-23.2,12.2s-13.9,11-20.2,17c-1.2,1-2.3,2.1-3.5,3.2-1,1-1.9,2.2-2.8,3.5,2,1.2,2.7,2.8,2,4.8s-2.2,2.8-4.5,2.2c-.3-.2-.8-.3-1.2-.5s-1-.3-1.5-.5c-1.3-.7-2.2-1.7-2.8-3-.5-1.5-.4-2.9.2-4.2,1-2.3,3.1-5.1,6.2-8.2,3.2-3.3,6.7-6.6,10.5-9.8,4-3.3,7.8-6.4,11.5-9.2,3.8-2.8,6.8-4.9,9-6.2,5-3.2,10.4-5.8,16.2-7.8s11.8-3.3,17.8-4c3.7-.3,7.3-.3,11,0,3.8.3,7.4,1.2,10.8,2.5,3.2,1.2,6.1,3.1,8.8,5.8,2.7,2.5,4.5,5.3,5.5,8.5,1.2,3.5,1.6,7.2,1.2,11s-1,7.5-2,11c-1.8,6.5-4.3,12.8-7.5,18.8-3,6-6.2,11.9-9.8,17.8-5.3,8.8-11,17.3-17,25.5-5.8,8.2-11.9,16.2-18.2,24.2-6.3,7.8-12.8,15.4-19.5,22.8-6.5,7-13.7,13.6-21.7,19.6Zm25.5-42.7c1,1.3,1.1,2.8.2,4.2s-2.1,2.1-3.8,1.8-2.9-1.3-3.8-3-1.2-3.3-1.2-5v-8.3c.2-4,.3-8.6.5-13.8.3-5.2.6-10.5.8-16,.3-5.7.7-11.1,1-16.2s.6-9.7.8-13.5c.2-4,.3-6.8.5-8.5v-7.5c.2-1.7.2-3.2.2-4.5.2-1.5.2-2.5.2-3,.3-2.2,1.4-3.4,3.2-3.8,2-.5,3.4.2,4.2,2,.3.5.4,1.1.2,1.8,0,.7-.1,1.2-.2,1.8-.3.5-.5,1.6-.5,3.2.2,1.7.2,2.8.2,3.5,0,1.5-.2,4.3-.5,8.5-.2,4-.4,8.7-.8,14-.2,5.2-.4,10.8-.8,16.8-.2,5.8-.4,11.4-.8,16.8-.2,5.2-.4,9.8-.8,14-.2,4-.2,6.8-.2,8.2-.2,1.2-.2,2.3-.2,3.5s.8,2.1,1.6,3Zm100.5.7c-2.2.5-4.4.5-6.8,0-2.2-.5-4-1.4-5.5-2.8-3-2.7-5.1-6-6.2-10-1.2-4.2-1.9-8.2-2.2-12-.8-.8-1.3-1.8-1.5-2.8s.2-1.9,1-2.8c-.3-7-.1-14,.8-21s2.9-13.5,6.2-19.5c1-2.5,2.8-4.2,5.2-5.2.7-.2,1.2-.2,1.8-.2.7,0,1.2-.1,1.8-.2.3,0,.9-.2,1.8-.8.8-.7,1.4-1.2,1.8-1.5,2.3-1.2,4.8-1.8,7.2-1.8s4.3,1.2,5.5,3.5c.8,1.7.7,4.1-.5,7.2-1.2,3-2.2,5.4-3,7.2-1.8,4.3-3.9,8.6-6.2,12.8-2.2,4-4.4,8-6.8,12-1.2,1.8-2.4,3.7-3.8,5.5-1.2,1.8-2.5,3.5-4,5,.2,1.5.3,3.3.5,5.5.3,2,.8,4,1.5,6s1.4,3.8,2.2,5.5c1,1.5,2.2,2.5,3.8,3,1.8.5,3.8.3,5.8-.5,2.2-.8,4.1-1.8,5.8-2.8,3.3-2,6.3-4.2,9-6.8,2.8-2.5,5.7-5.2,8.5-8,2.3-2.5,4.7-5.1,7-7.8s4.3-5.5,6-8.5c.3-.3.7-1.2,1-2.5.3-1.5.7-2.4,1-2.8.8-1,1.8-1.4,3-1.2,1.3,0,2.3.6,3,1.8,1,1.8.8,4.1-.8,6.8-1.3,2.7-2.6,4.8-3.8,6.5-3.5,4.8-7.4,9.4-11.8,13.8-4.2,4.2-8.7,8.1-13.5,11.8-2.2,1.8-4.5,3.4-7,4.8s-5.2,2.3-7.8,2.8Zm-8.5-65.7c-2,4-3.4,8.3-4.2,13-.7,4.7-1.1,9.3-1.2,14,1.8-2.8,3.5-5.7,5-8.5,1.7-3,3.2-5.9,4.8-8.8,1.3-2.8,2.7-5.6,4-8.2,1.3-2.8,2.6-5.7,3.8-8.5-1.3.3-2.5,1-3.5,2s-2.2,1.7-3.5,2h-1.5c-.7-.2-1.2-.2-1.5,0s-.7.7-1,1.5c-.6.6-.9,1.1-1.2,1.5Zm152.5,87.7c.5,1,.5,2,0,3-.5.8-1.2,1.4-2,1.8-.7.3-1.5.4-2.5.2s-1.8-.8-2.2-1.8c-.2-.3-.4-.9-.8-1.8-.3-1-.6-1.7-.8-2-1.8-4.8-3.2-9.8-4-15-.8-5.3-1.4-10.7-1.8-16-.3-5.8-.6-11.7-.8-17.5s-.3-11.7-.5-17.5c-.7-.3-1.4-.7-2.2-1-.7-.3-1.2-.8-1.8-1.5-2-1.5-2.3-3.5-1-6,.7-.8,1.4-1.5,2.2-2,1-.5,1.9-.9,2.8-1.2v-9.2c.2-4.8.2-9.9.2-15.2v-15.3c.2-4.8.2-8,.2-9.5-1.5-1.5-1.8-3.2-.8-5-5.3,2.3-10.7,4.9-16,7.8-5.2,2.7-10,5.9-14.5,9.8-2,1.5-3.3,3.1-4,4.8.7.5,1.3.8,2,1,.8.2,1.6.5,2.2,1,1.3,1.2,1.7,2.6,1,4.2-.5,1.7-1.7,2.5-3.5,2.5-1,0-2.3-.4-4-1.2-1.7-1-2.8-1.9-3.5-2.8-2.3-3-2.4-6.1-.2-9.2s4.8-5.9,8-8.2c5.8-4.2,11.9-7.8,18.2-11s12.8-6.2,19.5-9c5.7-2.3,11.4-4.3,17.2-6,6-1.7,12-2.8,18-3.2,4-.3,8.1-.4,12.2-.2s8.1,1.2,11.8,3c3.3,1.3,5.9,3.4,7.8,6.2,1.8,3,2.4,6.2,1.8,9.8-.5,3.5-1.8,7-3.8,10.5s-4.5,6.8-7.5,10c-2.8,3.2-5.5,6-8,8.5-6.8,6.5-14.2,12.2-22.2,17.2-7.8,5-16,9.5-24.5,13.5-.2.2-.2.7-.2,1.5,0,.7.1,1.1.2,1.2,11,5.3,22,10.7,33,16s22,10.7,33,16c.3.3,1.4.9,3.2,1.8,2,.7,3.2,1.2,3.8,1.5,1.8,1.2,2.3,2.8,1.5,4.8-.7,1.8-2,2.6-4,2.2-.5,0-1.4-.2-2.8-.8-1.2-.7-1.9-1.1-2.2-1.2-11-5.3-21.9-10.7-32.8-16s-21.8-10.7-32.8-16c0,6.3.1,12.7.2,19,.2,6.2.6,12.4,1.2,18.8.5,4.3,1.2,8.6,2,12.8,1.5,3.8,2.9,7.9,4.5,11.9Zm-7.5-128c.2,1.5.2,4.5.2,9s-.1,9-.2,14c0,5-.1,9.8-.2,14.2v8.8c9.7-4.7,18.9-10.1,27.8-16.2,9-6.3,16.9-13.7,23.8-22,2.7-3.2,4.7-6.3,6-9.5.5-1.3.9-2.7,1.2-4s.3-2.7,0-4-1.1-2.4-2.2-3.2c-1.2-1-2.6-1.8-4.2-2.2-1.7-.7-3.4-1.1-5.2-1.2-1.7-.3-3.2-.5-4.8-.5-8-.3-15.9.6-23.8,2.8-7.7,2.2-15.2,4.9-22.5,8.2-.3.2-.2.2.2.2.5-.2.9-.2,1.2,0,1,.3,1.7,1.1,2,2.2.5,1.1.7,2.3.7,3.4Zm95.2,103.8c-2,.7-3.9.6-5.8-.2s-3.3-2.2-4.5-4c-.8-1.7-1.4-3.4-1.8-5.2s-.7-3.7-1-5.5c-.3-2.8-.5-5.7-.5-8.5.2-2.8.4-5.7.8-8.5.2-1.3.5-3.2,1-5.5s1.1-4.8,1.8-7.2c.8-2.5,1.8-4.8,2.8-6.8,1-2.2,2-3.8,3-4.8,1.2-1.3,2.7-1.9,4.5-1.8,1.8,0,3.4.6,4.8,1.8,2.3.8,4.6,1.9,6.8,3.2,2.2,1.2,4.1,2.7,5.8,4.5,5.2,6.3,7,13.4,5.5,21.2-.5,2.5-1.6,5.2-3.2,8.2-1.5,2.8-3.3,5.6-5.5,8.2-2.2,2.5-4.5,4.8-7,6.8s-5.2,3.4-7.5,4.1Zm-2.8-7.3c1,.3,2.2,0,3.5-1,1.5-1.2,2.7-2.2,3.5-3,2.5-2.2,4.8-4.7,6.8-7.5s3.4-5.8,4.2-8.8,1-5.9.5-8.8c-.5-3-2-5.7-4.5-8-1.5-1.3-3.2-2.4-5.2-3.2-1.8-1-3.7-1.8-5.5-2.5-1.8,3.7-3.2,7.5-4.2,11.5-.8,4-1.4,8-1.8,12-.3,2.7-.5,5.4-.5,8.2.2,2.7.7,5.3,1.5,8,0,.5.2,1.1.5,1.8s.7,1.2,1.2,1.3Zm63.7-24c.3,2.5-.2,4.3-1.8,5.5s-3.4,1.9-5.8,2.2c-2.3.2-4.9.1-7.8-.2s-5.5-.8-8-1.2c-1.2-.3-2.8-.8-4.8-1.2s-3.3-1.2-4-2.2c-.8-1.3-.8-2.7,0-4,1-1.3,2.3-1.8,4-1.5.3.2.7.3,1,.5s.8.2,1.2.2c3,.8,6,1.6,9,2.2,3.2.5,6.2.4,9.2-.2,0-.3-.2-1.2-.8-2.5s-.8-2.2-1-2.8c-2-4.3-4-8.6-6-12.8s-3.8-8.4-5.2-12.8c-1.2-3.2-1.8-6.1-1.8-8.8-.2-2.2.2-4.3,1-6.5,1-2.2,2.4-3.9,4.2-5.2,1.3-.8,2.8-1.3,4.5-1.5,1.7-.3,3.2-.3,4.8,0,1.3.2,2.6.5,3.8,1,1.3.5,2.7,1,4,1.5,1,.5,1.6,1.2,1.8,2.2.3,1,.3,1.9,0,2.8s-.9,1.5-1.8,2c-.8.3-1.8.3-3,0-.3-.2-1.1-.5-2.2-1s-1.9-.8-2.2-1c-1-.3-2.2-.4-3.5-.2s-2.2.8-2.8,1.8c-.8,1.3-1.2,2.9-1,4.8s.5,3.6,1,5.2c1.7,5,3.7,9.8,6,14.5,2.5,4.7,4.8,9.4,6.8,14.2.3.8.6,1.7.8,2.5s.4,1.7.4,2.5Zm16.3,24.5c-2,.8-3.9.8-5.8-.2s-2.9-2.6-3.2-4.8c-.3-2,0-4.8,1-8.2,1-3.7,2.2-7.4,3.8-11.2,1.5-4,3-7.8,4.5-11.2,1.7-3.5,2.9-6.2,3.8-8,1.7-3.5,3.7-7.1,6-10.8,1.3-1.8,2.9-3.5,4.8-5,1.8-1.7,3.9-2.8,6.2-3.2,1.3-.3,3.1-.2,5.2.2,2.3.3,3.9,1.1,4.8,2.2,1.3,1.5,1.4,3.1.2,4.8-1,1.5-2.4,1.9-4.2,1.2-.2,0-.6-.2-1.2-.5-.5-.3-.8-.6-1-.8-1.8-.8-3.7-.3-5.5,1.5-1.7,1.8-3,3.7-4,5.5-1,1.7-2.4,4.4-4.2,8.2-1.8,3.7-3.7,7.7-5.5,12-1.7,4.2-3.2,8.2-4.8,12-1.3,3.8-2.1,6.8-2.2,8.8.7-.5,1.2-1,1.8-1.5.5-.7,1-1.2,1.5-1.8,2.3-2.8,4.4-5.7,6.2-8.5,1.8-3,3.7-6,5.5-9,.5-.8,1.3-2.3,2.5-4.5,1.3-2.2,2.8-4.5,4.2-7s2.9-4.8,4.2-7c1.3-2.3,2.2-3.8,2.8-4.5,1.2-1.5,2.6-2.5,4.2-3s3.2,0,4.5,1.5c1.2,1.3,1.8,2.9,2,4.8.2,1.7.3,3.3.5,5,.5,3.5.8,7,1,10.5.3,3.3.9,6.7,1.8,10,.5,2.3,1.2,4.7,2,7,1,2.2,1.9,4.3,2.8,6.5.5,1,.6,1.9.2,2.8s-.9,1.5-1.8,2c-.7.5-1.5.8-2.5.8-.8-.2-1.6-.7-2.2-1.5-.3-.5-.8-1.3-1.2-2.5s-1-2.4-1.5-3.8c-.5-1.5-1-2.8-1.5-4-.3-1.3-.6-2.2-.8-2.8-1.3-4.2-2.2-8.3-2.5-12.5s-.8-8.4-1.2-12.8c-3.8,6.3-7.6,12.7-11.2,19-3.5,6.3-7.6,12.4-12.2,18.2-1,1.3-2.2,2.6-3.5,3.8-1.4,1.1-2.8,1.8-4.3,2.3Z"/></svg>