<svg width="967" height="267" viewBox="0 0 967 267" fill="none" xmlns="http://www.w3.org/2000/svg">
<path d="M38.5055 237.384C37.0122 237.384 35.6788 237.075 34.5055 236.456C33.3535 235.837 32.4362 234.899 31.7535 233.64C31.0922 232.36 30.7615 230.76 30.7615 228.84V214.6H33.4495V228.936C33.4495 230.856 33.9188 232.339 34.8575 233.384C35.7962 234.429 37.0335 234.952 38.5695 234.952C40.1055 234.952 41.3322 234.429 42.2495 233.384C43.1668 232.339 43.6255 230.856 43.6255 228.936V214.6H46.3135V228.84C46.3135 230.76 45.9722 232.36 45.2895 233.64C44.6068 234.899 43.6788 235.837 42.5055 236.456C41.3322 237.075 39.9988 237.384 38.5055 237.384ZM49.437 237L56.189 225.8L49.437 214.6H52.509L57.789 223.368L62.941 214.6H66.013L59.229 225.768L66.013 237H62.941L57.629 228.2L52.509 237H49.437ZM69.9685 239.88L81.0405 212.68H83.8565L72.7525 239.88H69.9685ZM96.068 237.384C94.5747 237.384 93.2413 237.075 92.068 236.456C90.916 235.837 89.9987 234.899 89.316 233.64C88.6547 232.36 88.324 230.76 88.324 228.84V214.6H91.012V228.936C91.012 230.856 91.4813 232.339 92.42 233.384C93.3587 234.429 94.596 234.952 96.132 234.952C97.668 234.952 98.8947 234.429 99.812 233.384C100.729 232.339 101.188 230.856 101.188 228.936V214.6H103.876V228.84C103.876 230.76 103.535 232.36 102.852 233.64C102.169 234.899 101.241 235.837 100.068 236.456C98.8947 237.075 97.5613 237.384 96.068 237.384ZM108.856 237V234.664H113.944V216.936H108.856V214.6H121.72V216.936H116.632V234.664H121.72V237H108.856ZM145.118 237L152.127 214.6H155.231L162.207 237H159.263L157.631 231.432H149.695L148.062 237H145.118ZM153.599 218.376L150.367 229.192H156.959L153.727 218.376H153.599ZM165.074 237V214.6H167.826L178.002 232.296V214.6H180.658V237H177.874L167.698 219.304V237H165.074ZM184.549 237V214.6H189.254C192.923 214.6 195.632 215.603 197.382 217.608C199.152 219.613 200.038 222.344 200.038 225.8C200.038 229.256 199.152 231.987 197.382 233.992C195.632 235.997 192.923 237 189.254 237H184.549ZM187.238 234.536H189.19C191.152 234.536 192.72 234.173 193.894 233.448C195.088 232.723 195.952 231.709 196.486 230.408C197.019 229.107 197.286 227.571 197.286 225.8C197.286 224.029 197.019 222.493 196.486 221.192C195.952 219.891 195.088 218.877 193.894 218.152C192.72 217.427 191.152 217.064 189.19 217.064H187.238V234.536ZM222.413 237V214.6H225.293L230.413 225.256L235.533 214.6H238.413V237H235.789V219.784L231.437 228.84H229.389L225.036 219.816V237H222.413ZM242.752 237V214.6H256.736V217.032H245.44V224.488H255.776V226.92H245.44V234.568H256.736V237H242.752ZM261.299 237V214.6H266.004C269.673 214.6 272.382 215.603 274.132 217.608C275.902 219.613 276.788 222.344 276.788 225.8C276.788 229.256 275.902 231.987 274.132 233.992C272.382 235.997 269.673 237 266.004 237H261.299ZM263.988 234.536H265.94C267.902 234.536 269.47 234.173 270.644 233.448C271.838 232.723 272.702 231.709 273.236 230.408C273.769 229.107 274.036 227.571 274.036 225.8C274.036 224.029 273.769 222.493 273.236 221.192C272.702 219.891 271.838 218.877 270.644 218.152C269.47 217.427 267.902 217.064 265.94 217.064H263.988V234.536ZM281.543 237V234.664H286.631V216.936H281.543V214.6H294.407V216.936H289.319V234.664H294.407V237H281.543ZM298.618 237L305.627 214.6H308.731L315.707 237H312.763L311.131 231.432H303.195L301.562 237H298.618ZM307.099 218.376L303.867 229.192H310.459L307.227 218.376H307.099ZM336.993 237L344.002 214.6H347.106L354.082 237H351.138L349.506 231.432H341.57L339.938 237H336.993ZM345.474 218.376L342.242 229.192H348.834L345.602 218.376H345.474ZM357.749 237V214.6H364.629C366.357 214.6 367.776 214.888 368.885 215.464C370.016 216.04 370.858 216.829 371.413 217.832C371.968 218.813 372.245 219.933 372.245 221.192C372.245 222.664 371.861 223.965 371.093 225.096C370.346 226.205 369.194 226.984 367.637 227.432L372.501 237H369.301L364.789 227.816H364.629H360.437V237H357.749ZM360.437 225.352H364.533C366.24 225.352 367.488 224.968 368.277 224.2C369.088 223.411 369.493 222.408 369.493 221.192C369.493 219.912 369.098 218.899 368.309 218.152C367.541 217.405 366.272 217.032 364.501 217.032H360.437V225.352ZM382.569 237V217.032H376.553V214.6H391.273V217.032H385.257V237H382.569ZM422.512 237.384C420.933 237.384 419.557 237.085 418.384 236.488C417.232 235.891 416.336 235.059 415.696 233.992C415.077 232.925 414.757 231.677 414.736 230.248H417.552C417.573 231.528 418 232.637 418.832 233.576C419.685 234.493 420.912 234.952 422.512 234.952C423.984 234.952 425.114 234.6 425.904 233.896C426.714 233.171 427.12 232.307 427.12 231.304C427.12 230.472 426.928 229.779 426.544 229.224C426.16 228.648 425.53 228.147 424.656 227.72C423.802 227.272 422.65 226.813 421.2 226.344C419.152 225.725 417.658 224.883 416.72 223.816C415.781 222.749 415.312 221.427 415.312 219.848C415.312 218.781 415.589 217.821 416.144 216.968C416.698 216.115 417.498 215.443 418.544 214.952C419.589 214.461 420.858 214.216 422.352 214.216C423.76 214.216 424.986 214.483 426.032 215.016C427.098 215.528 427.92 216.253 428.496 217.192C429.093 218.131 429.392 219.208 429.392 220.424H426.576C426.576 219.827 426.416 219.24 426.096 218.664C425.776 218.088 425.296 217.608 424.656 217.224C424.016 216.84 423.205 216.648 422.224 216.648C421.05 216.648 420.069 216.936 419.28 217.512C418.49 218.067 418.096 218.835 418.096 219.816C418.096 220.563 418.266 221.192 418.608 221.704C418.97 222.216 419.557 222.685 420.368 223.112C421.178 223.517 422.277 223.955 423.664 224.424C424.965 224.851 426.074 225.352 426.992 225.928C427.93 226.483 428.645 227.176 429.135 228.008C429.648 228.84 429.904 229.875 429.904 231.112C429.904 232.328 429.594 233.405 428.976 234.344C428.357 235.283 427.493 236.029 426.384 236.584C425.274 237.117 423.984 237.384 422.512 237.384ZM440.131 237V217.032H434.115V214.6H448.835V217.032H442.819V237H440.131ZM460.631 237.384C459.137 237.384 457.804 237.075 456.631 236.456C455.479 235.837 454.561 234.899 453.879 233.64C453.217 232.36 452.887 230.76 452.887 228.84V214.6H455.575V228.936C455.575 230.856 456.044 232.339 456.983 233.384C457.921 234.429 459.159 234.952 460.695 234.952C462.231 234.952 463.457 234.429 464.375 233.384C465.292 232.339 465.751 230.856 465.751 228.936V214.6H468.439V228.84C468.439 230.76 468.097 232.36 467.415 233.64C466.732 234.899 465.804 235.837 464.631 236.456C463.457 237.075 462.124 237.384 460.631 237.384ZM472.362 237V214.6H477.066C480.735 214.6 483.445 215.603 485.194 217.608C486.965 219.613 487.85 222.344 487.85 225.8C487.85 229.256 486.965 231.987 485.194 233.992C483.445 235.997 480.735 237 477.066 237H472.362ZM475.05 234.536H477.002C478.965 234.536 480.533 234.173 481.706 233.448C482.901 232.723 483.765 231.709 484.298 230.408C484.831 229.107 485.098 227.571 485.098 225.8C485.098 224.029 484.831 222.493 484.298 221.192C483.765 219.891 482.901 218.877 481.706 218.152C480.533 217.427 478.965 217.064 477.002 217.064H475.05V234.536ZM492.19 237V214.6H506.174V217.032H494.878V224.488H505.214V226.92H494.878V234.568H506.174V237H492.19ZM510.449 237V214.6H513.201L523.377 232.296V214.6H526.033V237H523.249L513.073 219.304V237H510.449ZM536.069 237V217.032H530.053V214.6H544.773V217.032H538.757V237H536.069Z" fill="#323232"/>
<path d="M30.629 51V28.6H33.317V38.264H44.165V28.6H46.853V51H44.165V40.696H33.317V51H30.629ZM51.0645 51V28.6H65.0485V31.032H53.7525V38.488H64.0885V40.92H53.7525V48.568H65.0485V51H51.0645ZM70.284 51V28.6H72.972V48.568H84.332V51H70.284ZM89.4715 51V28.6H92.1595V48.568H103.52V51H89.4715ZM115.475 51.384C113.662 51.384 112.104 50.904 110.803 49.944C109.502 48.984 108.499 47.64 107.795 45.912C107.112 44.1627 106.771 42.1253 106.771 39.8C106.771 37.4747 107.112 35.448 107.795 33.72C108.499 31.9707 109.502 30.616 110.803 29.656C112.104 28.696 113.662 28.216 115.475 28.216C117.288 28.216 118.846 28.696 120.147 29.656C121.448 30.616 122.44 31.9707 123.123 33.72C123.827 35.448 124.179 37.4747 124.179 39.8C124.179 42.1253 123.827 44.1627 123.123 45.912C122.44 47.64 121.448 48.984 120.147 49.944C118.846 50.904 117.288 51.384 115.475 51.384ZM115.475 48.856C117.246 48.856 118.675 48.0667 119.763 46.488C120.872 44.9093 121.427 42.68 121.427 39.8C121.427 36.92 120.872 34.6907 119.763 33.112C118.675 31.5333 117.246 30.744 115.475 30.744C113.683 30.744 112.243 31.5333 111.155 33.112C110.067 34.6907 109.523 36.92 109.523 39.8C109.523 42.68 110.067 44.9093 111.155 46.488C112.243 48.0667 113.683 48.856 115.475 48.856ZM130.311 54.904L133.127 46.296H136.679L132.871 54.904H130.311ZM166.606 51V48.664H171.694V30.936H166.606V28.6H179.47V30.936H174.382V48.664H179.47V51H166.606ZM189.761 37.56L191.905 28.6H195.361L192.193 37.56H189.761ZM203.413 51V28.6H206.293L211.413 39.256L216.533 28.6H219.413V51H216.789V33.784L212.437 42.84H210.389L206.036 33.816V51H203.413Z" fill="#323232"/>
<path d="M12.1914 99.5C13.8581 100.667 14.3581 102.167 13.6914 104C13.1914 105.833 11.9414 106.667 9.94141 106.5C9.27474 106.333 8.60807 106.25 7.94141 106.25C7.27474 106.083 6.52474 105.917 5.69141 105.75C4.35807 105.417 3.35807 104.667 2.69141 103.5C2.02474 102.167 1.94141 100.833 2.44141 99.5C2.77474 98.6667 3.52474 97.6667 4.69141 96.5C6.02474 95.1667 7.44141 93.8333 8.94141 92.5C10.4414 91.1667 11.8581 89.9167 13.1914 88.75C14.6914 87.5833 15.7747 86.75 16.4414 86.25C27.1081 77.75 38.6081 70.5833 50.9414 64.75C63.2747 58.75 75.9414 53.5833 88.9414 49.25C89.7747 48.9167 90.8581 48.5 92.1914 48C93.5247 47.5 94.9414 47.0833 96.4414 46.75C98.1081 46.4167 99.6081 46.1667 100.941 46C102.441 45.8333 103.525 45.9167 104.191 46.25C105.858 46.9167 106.691 48.0833 106.691 49.75C106.691 51.4167 105.858 52.5833 104.191 53.25C103.691 53.4167 102.941 53.5 101.941 53.5C98.4414 54 94.9414 54.9167 91.4414 56.25C82.4414 59.4167 73.5247 62.9167 64.6914 66.75C55.8581 70.4167 47.3581 74.6667 39.1914 79.5C34.3581 82.3333 29.6914 85.4167 25.1914 88.75C20.8581 92.0833 16.5247 95.6667 12.1914 99.5ZM50.1914 201C48.6914 202.333 47.1914 202.583 45.6914 201.75C44.1914 200.75 43.2747 199.333 42.9414 197.5C42.6081 195.5 42.3581 191.833 42.1914 186.5C42.1914 181 42.1914 175.25 42.1914 169.25C42.3581 163.083 42.5247 157.333 42.6914 152C42.8581 146.5 43.0247 142.75 43.1914 140.75C42.5247 141.083 41.6081 141.5 40.4414 142C39.4414 142.5 38.3581 143 37.1914 143.5C36.0247 144 34.8581 144.333 33.6914 144.5C32.6914 144.667 31.8581 144.667 31.1914 144.5C29.6914 144 28.8581 143 28.6914 141.5C28.5247 139.833 29.1081 138.583 30.4414 137.75C30.9414 137.417 31.4414 137.25 31.9414 137.25C32.4414 137.25 32.9414 137.083 33.4414 136.75C36.6081 135.583 39.9414 134.167 43.4414 132.5L44.9414 98C44.4414 97.6667 43.9414 97.25 43.4414 96.75C42.9414 96.25 42.6081 95.6667 42.4414 95C42.2747 94.1667 42.6081 92.8333 43.4414 91C44.2747 89.1667 44.9414 87.8333 45.4414 87C46.4414 85.1667 47.8581 84.5833 49.6914 85.25C51.5247 85.75 52.5247 87 52.6914 89C52.6914 90.3333 52.6081 92.9167 52.4414 96.75C52.4414 100.583 52.2747 104.667 51.9414 109C51.7747 113.333 51.5247 117.417 51.1914 121.25C51.0247 125.083 50.9414 127.667 50.9414 129C55.6081 127 60.1914 125.167 64.6914 123.5C69.3581 121.667 74.1081 119.833 78.9414 118C80.2747 117.5 81.3581 117.583 82.1914 118.25C83.0247 118.75 83.6081 119.417 83.9414 120.25C84.2747 121.083 84.2747 122 83.9414 123C83.6081 124 82.7747 124.75 81.4414 125.25C76.1081 127.083 70.8581 129 65.6914 131C60.6914 133 55.6914 135.083 50.6914 137.25C50.3581 145.083 50.0247 152.833 49.6914 160.5C49.5247 168.167 49.5247 175.917 49.6914 183.75C51.8581 184.083 52.9414 185.417 52.9414 187.75C52.9414 188.417 52.8581 189.417 52.6914 190.75C52.6914 192.083 52.5247 193.417 52.1914 194.75C52.0247 196.083 51.7747 197.333 51.4414 198.5C51.1081 199.667 50.6914 200.5 50.1914 201ZM107.162 167.25C105.162 168.083 103.245 168 101.412 167C99.5788 166 98.4954 164.417 98.1621 162.25C97.8288 160.25 98.1621 157.5 99.1621 154C100.162 150.333 101.412 146.583 102.912 142.75C104.412 138.75 105.912 135 107.412 131.5C109.079 128 110.329 125.333 111.162 123.5C112.829 120 114.829 116.417 117.162 112.75C118.495 110.917 120.079 109.25 121.912 107.75C123.745 106.083 125.829 105 128.162 104.5C129.495 104.167 131.245 104.25 133.412 104.75C135.745 105.083 137.329 105.833 138.162 107C139.495 108.5 139.579 110.083 138.412 111.75C137.412 113.25 135.995 113.667 134.162 113C133.995 113 133.579 112.833 132.912 112.5C132.412 112.167 132.079 111.917 131.912 111.75C130.079 110.917 128.245 111.417 126.412 113.25C124.745 115.083 123.412 116.917 122.412 118.75C121.412 120.417 119.995 123.167 118.162 127C116.329 130.667 114.495 134.667 112.662 139C110.995 143.167 109.412 147.167 107.912 151C106.579 154.833 105.829 157.75 105.662 159.75C106.329 159.25 106.912 158.75 107.412 158.25C107.912 157.583 108.412 157 108.912 156.5C111.245 153.667 113.329 150.833 115.162 148C116.995 145 118.829 142 120.662 139C121.162 138.167 121.995 136.667 123.162 134.5C124.495 132.333 125.912 130 127.412 127.5C128.912 125 130.329 122.667 131.662 120.5C132.995 118.167 133.912 116.667 134.412 116C135.579 114.5 136.995 113.5 138.662 113C140.329 112.5 141.829 113 143.162 114.5C144.329 115.833 144.995 117.417 145.162 119.25C145.329 120.917 145.495 122.583 145.662 124.25C146.162 127.75 146.495 131.25 146.662 134.75C146.995 138.083 147.579 141.417 148.412 144.75C148.912 147.083 149.579 149.417 150.412 151.75C151.412 153.917 152.329 156.083 153.162 158.25C153.662 159.25 153.745 160.167 153.412 161C153.079 161.833 152.495 162.5 151.662 163C150.995 163.5 150.162 163.75 149.162 163.75C148.329 163.583 147.579 163.083 146.912 162.25C146.579 161.75 146.162 160.917 145.662 159.75C145.162 158.583 144.662 157.333 144.162 156C143.662 154.5 143.162 153.167 142.662 152C142.329 150.667 142.079 149.75 141.912 149.25C140.579 145.083 139.745 140.917 139.412 136.75C139.079 132.583 138.662 128.333 138.162 124C134.329 130.333 130.579 136.667 126.912 143C123.412 149.333 119.329 155.417 114.662 161.25C113.662 162.583 112.495 163.833 111.162 165C109.995 166 108.662 166.75 107.162 167.25ZM173.209 167.75C172.376 168.25 171.459 168.333 170.459 168C169.459 167.667 168.709 167.083 168.209 166.25C167.042 164.417 166.209 162.417 165.709 160.25C165.209 157.917 164.792 155.667 164.459 153.5C164.126 150.5 163.876 147.5 163.709 144.5C163.542 141.5 163.376 138.5 163.209 135.5C162.876 123.667 162.959 112 163.459 100.5C163.959 88.8333 164.792 77.0833 165.959 65.25C166.126 64.25 166.459 63.4167 166.959 62.75C167.626 61.9167 168.376 61.4167 169.209 61.25C170.042 61.0833 170.792 61.25 171.459 61.75C172.292 62.0833 172.959 62.75 173.459 63.75C173.792 64.5833 173.792 65.5833 173.459 66.75C173.292 67.75 173.126 68.75 172.959 69.75C171.792 82.0833 170.959 94.4167 170.459 106.75C170.126 119.083 170.376 131.5 171.209 144C171.209 146.5 171.459 149.167 171.959 152C175.292 140.5 179.626 129.333 184.959 118.5C187.292 114.167 189.792 110.083 192.459 106.25C195.292 102.417 198.626 99.0833 202.459 96.25C203.792 95.4167 205.209 94.6667 206.709 94C208.376 93.3333 209.959 93.1667 211.459 93.5C212.792 93.6667 213.876 94.3333 214.709 95.5C215.709 96.6667 216.459 98 216.959 99.5C217.459 101 217.792 102.583 217.959 104.25C218.292 105.917 218.459 107.5 218.459 109C218.792 114.333 218.709 119.75 218.209 125.25C217.709 130.75 217.042 136.167 216.209 141.5C215.709 144.833 215.042 148.167 214.209 151.5C213.376 154.833 212.209 158.083 210.709 161.25C209.542 163.417 208.209 165.083 206.709 166.25C204.376 167.917 201.876 168 199.209 166.5C196.709 165 194.626 163.167 192.959 161C190.792 158.167 188.792 155.333 186.959 152.5C185.292 149.667 183.709 146.833 182.209 144C182.042 144.667 181.626 145.917 180.959 147.75C180.292 149.583 179.626 151.5 178.959 153.5C178.459 155.5 177.959 157.417 177.459 159.25C176.959 161.083 176.709 162.417 176.709 163.25C176.709 165.25 175.792 166.583 173.959 167.25C173.792 167.417 173.626 167.5 173.459 167.5C173.459 167.5 173.376 167.583 173.209 167.75ZM186.959 136.25C187.459 137.417 188.292 139.25 189.459 141.75C190.792 144.083 192.209 146.5 193.709 149C195.209 151.333 196.792 153.583 198.459 155.75C200.126 157.75 201.542 159.167 202.709 160C203.376 159.5 203.959 158.583 204.459 157.25C205.126 155.75 205.709 154.167 206.209 152.5C206.709 150.833 207.126 149.25 207.459 147.75C207.792 146.083 208.042 144.833 208.209 144C209.209 139.167 209.876 134.333 210.209 129.5C210.709 124.667 211.042 119.833 211.209 115C211.209 114.333 211.209 113.333 211.209 112C211.209 110.667 211.126 109.333 210.959 108C210.792 106.5 210.626 105.083 210.459 103.75C210.292 102.417 210.042 101.5 209.709 101C207.376 101.667 204.959 103.333 202.459 106C200.126 108.667 197.876 111.75 195.709 115.25C193.542 118.75 191.542 122.25 189.709 125.75C188.042 129.25 186.709 132.167 185.709 134.5C185.709 134.833 185.876 135.167 186.209 135.5C186.542 135.667 186.792 135.917 186.959 136.25ZM241.348 92C241.014 92.1667 240.264 92.25 239.098 92.25C238.098 92.25 237.431 92.25 237.098 92.25C235.931 92.25 235.014 91.8333 234.348 91C233.681 90.1667 233.348 89.3333 233.348 88.5C233.348 87.6667 233.681 86.8333 234.348 86C235.014 85.1667 235.931 84.75 237.098 84.75C237.431 84.75 238.098 84.75 239.098 84.75C240.264 84.75 241.014 84.8333 241.348 85C243.014 85.6667 243.848 86.8333 243.848 88.5C243.848 90.1667 243.014 91.3333 241.348 92ZM237.348 175C238.681 176.667 238.681 178.333 237.348 180C236.014 181.5 234.431 181.75 232.598 180.75C231.598 180.083 230.848 179.25 230.348 178.25C230.014 177.083 229.681 175.833 229.348 174.5C228.348 169.667 227.848 164.75 227.848 159.75C227.848 157.917 227.931 154.917 228.098 150.75C228.264 146.417 228.514 141.917 228.848 137.25C229.348 132.417 229.848 127.917 230.348 123.75C231.014 119.583 231.681 116.583 232.348 114.75C232.681 113.75 233.264 113.083 234.098 112.75C235.098 112.25 236.014 112.167 236.848 112.5C237.681 112.667 238.348 113.167 238.848 114C239.514 114.667 239.764 115.583 239.598 116.75C239.264 117.75 239.014 118.833 238.848 120C238.681 121 238.514 122 238.348 123C237.514 127.333 236.931 131.75 236.598 136.25C236.264 140.583 235.931 145 235.598 149.5C235.431 152.667 235.348 155.833 235.348 159C235.348 162 235.514 165.167 235.848 168.5C236.014 169.167 236.181 170.333 236.348 172C236.681 173.5 237.014 174.5 237.348 175ZM258.285 167.25C256.285 168.083 254.368 168 252.535 167C250.702 166 249.618 164.417 249.285 162.25C248.952 160.25 249.285 157.5 250.285 154C251.285 150.333 252.535 146.583 254.035 142.75C255.535 138.75 257.035 135 258.535 131.5C260.202 128 261.452 125.333 262.285 123.5C263.952 120 265.952 116.417 268.285 112.75C269.618 110.917 271.202 109.25 273.035 107.75C274.868 106.083 276.952 105 279.285 104.5C280.618 104.167 282.368 104.25 284.535 104.75C286.868 105.083 288.452 105.833 289.285 107C290.618 108.5 290.702 110.083 289.535 111.75C288.535 113.25 287.118 113.667 285.285 113C285.118 113 284.702 112.833 284.035 112.5C283.535 112.167 283.202 111.917 283.035 111.75C281.202 110.917 279.368 111.417 277.535 113.25C275.868 115.083 274.535 116.917 273.535 118.75C272.535 120.417 271.118 123.167 269.285 127C267.452 130.667 265.618 134.667 263.785 139C262.118 143.167 260.535 147.167 259.035 151C257.702 154.833 256.952 157.75 256.785 159.75C257.452 159.25 258.035 158.75 258.535 158.25C259.035 157.583 259.535 157 260.035 156.5C262.368 153.667 264.452 150.833 266.285 148C268.118 145 269.952 142 271.785 139C272.285 138.167 273.118 136.667 274.285 134.5C275.618 132.333 277.035 130 278.535 127.5C280.035 125 281.452 122.667 282.785 120.5C284.118 118.167 285.035 116.667 285.535 116C286.702 114.5 288.118 113.5 289.785 113C291.452 112.5 292.952 113 294.285 114.5C295.452 115.833 296.118 117.417 296.285 119.25C296.452 120.917 296.618 122.583 296.785 124.25C297.285 127.75 297.618 131.25 297.785 134.75C298.118 138.083 298.702 141.417 299.535 144.75C300.035 147.083 300.702 149.417 301.535 151.75C302.535 153.917 303.452 156.083 304.285 158.25C304.785 159.25 304.868 160.167 304.535 161C304.202 161.833 303.618 162.5 302.785 163C302.118 163.5 301.285 163.75 300.285 163.75C299.452 163.583 298.702 163.083 298.035 162.25C297.702 161.75 297.285 160.917 296.785 159.75C296.285 158.583 295.785 157.333 295.285 156C294.785 154.5 294.285 153.167 293.785 152C293.452 150.667 293.202 149.75 293.035 149.25C291.702 145.083 290.868 140.917 290.535 136.75C290.202 132.583 289.785 128.333 289.285 124C285.452 130.333 281.702 136.667 278.035 143C274.535 149.333 270.452 155.417 265.785 161.25C264.785 162.583 263.618 163.833 262.285 165C261.118 166 259.785 166.75 258.285 167.25ZM363.582 173.25C362.749 175.417 361.332 176.25 359.332 175.75C357.332 175.083 356.249 173.583 356.082 171.25C355.915 169.917 355.749 167.583 355.582 164.25C355.582 160.75 355.582 156.833 355.582 152.5C355.582 148.167 355.499 143.583 355.332 138.75C355.332 133.75 355.249 129.083 355.082 124.75C355.082 120.417 354.999 116.583 354.832 113.25C354.665 109.75 354.499 107.333 354.332 106C352.499 107.833 350.832 109.833 349.332 112C347.999 114.167 346.582 116.333 345.082 118.5C341.582 124 338.499 129.667 335.832 135.5C333.165 141.333 330.665 147.25 328.332 153.25C327.999 153.917 327.499 155.167 326.832 157C326.332 158.667 325.665 160.417 324.832 162.25C324.165 164.083 323.415 165.833 322.582 167.5C321.749 169 321.082 170.083 320.582 170.75C319.749 171.583 318.749 172.083 317.582 172.25C316.415 172.417 315.415 172.083 314.582 171.25C313.749 170.583 313.082 169.5 312.582 168C312.249 166.333 311.999 164.583 311.832 162.75C311.832 160.917 311.832 159.167 311.832 157.5C311.832 155.667 311.832 154.167 311.832 153C311.832 152 311.832 149.917 311.832 146.75C311.832 143.417 311.832 139.917 311.832 136.25C311.999 132.583 312.082 129.167 312.082 126C312.082 122.667 312.082 120.5 312.082 119.5C312.082 118.333 312.415 117.417 313.082 116.75C313.915 116.083 314.749 115.75 315.582 115.75C316.415 115.583 317.249 115.75 318.082 116.25C318.915 116.75 319.415 117.583 319.582 118.75V124.25C319.582 125.25 319.582 127.25 319.582 130.25C319.582 133.25 319.499 136.5 319.332 140C319.332 143.333 319.332 146.5 319.332 149.5C319.332 152.5 319.332 154.5 319.332 155.5C322.499 147.5 325.915 139.583 329.582 131.75C333.249 123.75 337.499 116.25 342.332 109.25C343.165 108.083 344.082 106.75 345.082 105.25C346.082 103.75 347.165 102.333 348.332 101C349.665 99.6667 350.999 98.5833 352.332 97.75C353.665 96.9167 354.999 96.6667 356.332 97C357.499 97.1667 358.499 97.75 359.332 98.75C360.165 99.75 360.749 100.75 361.082 101.75C361.582 103.417 361.915 106 362.082 109.5C362.415 113 362.665 117 362.832 121.5C362.999 126 363.082 130.75 363.082 135.75C363.249 140.75 363.332 145.5 363.332 150C363.332 154.5 363.332 158.583 363.332 162.25C363.332 165.75 363.332 168.333 363.332 170C363.499 170.5 363.665 171.083 363.832 171.75C363.999 172.25 363.915 172.75 363.582 173.25ZM380.111 167.25C378.111 168.083 376.195 168 374.361 167C372.528 166 371.445 164.417 371.111 162.25C370.778 160.25 371.111 157.5 372.111 154C373.111 150.333 374.361 146.583 375.861 142.75C377.361 138.75 378.861 135 380.361 131.5C382.028 128 383.278 125.333 384.111 123.5C385.778 120 387.778 116.417 390.111 112.75C391.445 110.917 393.028 109.25 394.861 107.75C396.695 106.083 398.778 105 401.111 104.5C402.445 104.167 404.195 104.25 406.361 104.75C408.695 105.083 410.278 105.833 411.111 107C412.445 108.5 412.528 110.083 411.361 111.75C410.361 113.25 408.945 113.667 407.111 113C406.945 113 406.528 112.833 405.861 112.5C405.361 112.167 405.028 111.917 404.861 111.75C403.028 110.917 401.195 111.417 399.361 113.25C397.695 115.083 396.361 116.917 395.361 118.75C394.361 120.417 392.945 123.167 391.111 127C389.278 130.667 387.445 134.667 385.611 139C383.945 143.167 382.361 147.167 380.861 151C379.528 154.833 378.778 157.75 378.611 159.75C379.278 159.25 379.861 158.75 380.361 158.25C380.861 157.583 381.361 157 381.861 156.5C384.195 153.667 386.278 150.833 388.111 148C389.945 145 391.778 142 393.611 139C394.111 138.167 394.945 136.667 396.111 134.5C397.445 132.333 398.861 130 400.361 127.5C401.861 125 403.278 122.667 404.611 120.5C405.945 118.167 406.861 116.667 407.361 116C408.528 114.5 409.945 113.5 411.611 113C413.278 112.5 414.778 113 416.111 114.5C417.278 115.833 417.945 117.417 418.111 119.25C418.278 120.917 418.445 122.583 418.611 124.25C419.111 127.75 419.445 131.25 419.611 134.75C419.945 138.083 420.528 141.417 421.361 144.75C421.861 147.083 422.528 149.417 423.361 151.75C424.361 153.917 425.278 156.083 426.111 158.25C426.611 159.25 426.695 160.167 426.361 161C426.028 161.833 425.445 162.5 424.611 163C423.945 163.5 423.111 163.75 422.111 163.75C421.278 163.583 420.528 163.083 419.861 162.25C419.528 161.75 419.111 160.917 418.611 159.75C418.111 158.583 417.611 157.333 417.111 156C416.611 154.5 416.111 153.167 415.611 152C415.278 150.667 415.028 149.75 414.861 149.25C413.528 145.083 412.695 140.917 412.361 136.75C412.028 132.583 411.611 128.333 411.111 124C407.278 130.333 403.528 136.667 399.861 143C396.361 149.333 392.278 155.417 387.611 161.25C386.611 162.583 385.445 163.833 384.111 165C382.945 166 381.611 166.75 380.111 167.25ZM483.006 218.25C482.006 219.083 481.006 219.333 480.006 219C479.006 218.833 478.173 218.417 477.506 217.75C477.006 217.083 476.756 216.25 476.756 215.25C476.756 214.25 477.256 213.333 478.256 212.5C481.089 210.167 483.923 207.833 486.756 205.5C489.589 203 492.339 200.333 495.006 197.5C500.839 191.5 506.423 185.25 511.756 178.75C517.256 172.083 522.589 165.333 527.756 158.5C533.256 151.167 538.589 143.833 543.756 136.5C548.923 129 553.756 121.25 558.256 113.25C560.756 108.583 563.006 103.833 565.006 99C567.173 94.1667 568.923 89.1667 570.256 84C570.756 81.6667 571.089 79.25 571.256 76.75C571.423 74.25 571.089 71.8333 570.256 69.5C568.589 64.8333 565.423 61.6667 560.756 60C555.589 58 550.089 57.25 544.256 57.75C538.589 58.25 533.089 59.3333 527.756 61C519.423 63.8333 511.673 67.9167 504.506 73.25C497.339 78.5833 490.589 84.25 484.256 90.25C483.089 91.25 481.923 92.3333 480.756 93.5C479.756 94.5 478.839 95.6667 478.006 97C480.006 98.1667 480.673 99.75 480.006 101.75C479.339 103.75 477.839 104.5 475.506 104C475.173 103.833 474.756 103.667 474.256 103.5C473.756 103.333 473.256 103.167 472.756 103C471.423 102.333 470.506 101.333 470.006 100C469.506 98.5 469.589 97.0833 470.256 95.75C471.256 93.4167 473.339 90.6667 476.506 87.5C479.673 84.1667 483.173 80.9167 487.006 77.75C491.006 74.4167 494.839 71.3333 498.506 68.5C502.339 65.6667 505.339 63.5833 507.506 62.25C512.506 59.0833 517.923 56.5 523.756 54.5C529.589 52.5 535.506 51.1667 541.506 50.5C545.173 50.1667 548.839 50.1667 552.506 50.5C556.339 50.8333 559.923 51.6667 563.256 53C566.423 54.1667 569.339 56.0833 572.006 58.75C574.673 61.25 576.506 64.0833 577.506 67.25C578.673 70.75 579.089 74.4167 578.756 78.25C578.423 82.0833 577.756 85.75 576.756 89.25C574.923 95.75 572.423 102 569.256 108C566.256 114 563.006 119.917 559.506 125.75C554.173 134.583 548.506 143.083 542.506 151.25C536.673 159.417 530.589 167.5 524.256 175.5C517.923 183.333 511.423 190.917 504.756 198.25C498.256 205.583 491.006 212.25 483.006 218.25ZM508.506 175.5C509.506 176.833 509.589 178.25 508.756 179.75C507.923 181.25 506.673 181.833 505.006 181.5C503.339 181.167 502.089 180.167 501.256 178.5C500.423 176.833 500.006 175.167 500.006 173.5C500.006 171.833 500.006 169.083 500.006 165.25C500.173 161.25 500.339 156.667 500.506 151.5C500.839 146.333 501.089 141 501.256 135.5C501.589 129.833 501.923 124.417 502.256 119.25C502.589 114.083 502.839 109.583 503.006 105.75C503.173 101.75 503.339 98.9167 503.506 97.25C503.506 96.75 503.506 95.8333 503.506 94.5C503.506 93 503.506 91.4167 503.506 89.75C503.673 88.0833 503.756 86.5833 503.756 85.25C503.923 83.75 504.006 82.75 504.006 82.25C504.339 80.0833 505.423 78.8333 507.256 78.5C509.256 78 510.673 78.6667 511.506 80.5C511.839 81 511.923 81.5833 511.756 82.25C511.756 82.9167 511.673 83.5 511.506 84C511.173 84.5 511.006 85.5833 511.006 87.25C511.173 88.9167 511.256 90.0833 511.256 90.75C511.256 92.25 511.089 95.0833 510.756 99.25C510.589 103.25 510.339 107.917 510.006 113.25C509.839 118.417 509.589 124 509.256 130C509.089 135.833 508.839 141.417 508.506 146.75C508.339 151.917 508.089 156.583 507.756 160.75C507.589 164.75 507.506 167.5 507.506 169C507.339 170.167 507.256 171.333 507.256 172.5C507.256 173.667 507.673 174.667 508.506 175.5ZM608.979 176.25C606.812 176.75 604.562 176.75 602.229 176.25C600.062 175.75 598.229 174.833 596.729 173.5C593.729 170.833 591.645 167.5 590.479 163.5C589.312 159.333 588.562 155.333 588.229 151.5C587.395 150.667 586.895 149.75 586.729 148.75C586.562 147.75 586.895 146.833 587.729 146C587.395 139 587.645 132 588.479 125C589.312 118 591.395 111.5 594.729 105.5C595.729 103 597.479 101.25 599.979 100.25C600.645 100.083 601.229 100 601.729 100C602.395 100 602.979 99.9167 603.479 99.75C603.812 99.75 604.395 99.5 605.229 99C606.062 98.3333 606.645 97.8333 606.979 97.5C609.312 96.3333 611.729 95.75 614.229 95.75C616.729 95.75 618.562 96.9167 619.729 99.25C620.562 100.917 620.395 103.333 619.229 106.5C618.062 109.5 617.062 111.917 616.229 113.75C614.395 118.083 612.312 122.333 609.979 126.5C607.812 130.5 605.562 134.5 603.229 138.5C602.062 140.333 600.812 142.167 599.479 144C598.312 145.833 596.979 147.5 595.479 149C595.645 150.5 595.812 152.333 595.979 154.5C596.312 156.5 596.812 158.5 597.479 160.5C598.145 162.5 598.895 164.333 599.729 166C600.729 167.5 601.979 168.5 603.479 169C605.312 169.5 607.229 169.333 609.229 168.5C611.395 167.667 613.312 166.75 614.979 165.75C618.312 163.75 621.312 161.5 623.979 159C626.812 156.5 629.645 153.833 632.479 151C634.812 148.5 637.145 145.917 639.479 143.25C641.812 140.583 643.812 137.75 645.479 134.75C645.812 134.417 646.145 133.583 646.479 132.25C646.812 130.75 647.145 129.833 647.479 129.5C648.312 128.5 649.312 128.083 650.479 128.25C651.812 128.25 652.812 128.833 653.479 130C654.479 131.833 654.229 134.083 652.729 136.75C651.395 139.417 650.145 141.583 648.979 143.25C645.479 148.083 641.562 152.667 637.229 157C633.062 161.167 628.562 165.083 623.729 168.75C621.562 170.583 619.229 172.167 616.729 173.5C614.229 174.833 611.645 175.75 608.979 176.25ZM600.479 110.5C598.479 114.5 597.062 118.833 596.229 123.5C595.562 128.167 595.145 132.833 594.979 137.5C596.812 134.667 598.479 131.833 599.979 129C601.645 126 603.229 123.083 604.729 120.25C606.062 117.417 607.395 114.667 608.729 112C610.062 109.167 611.312 106.333 612.479 103.5C611.145 103.833 609.979 104.5 608.979 105.5C607.979 106.5 606.812 107.167 605.479 107.5C605.312 107.5 604.812 107.5 603.979 107.5C603.312 107.333 602.812 107.333 602.479 107.5C602.145 107.667 601.812 108.167 601.479 109C601.145 109.667 600.812 110.167 600.479 110.5ZM753.051 198.25C753.551 199.25 753.551 200.25 753.051 201.25C752.551 202.083 751.884 202.667 751.051 203C750.384 203.333 749.551 203.417 748.551 203.25C747.551 203.083 746.801 202.5 746.301 201.5C746.134 201.167 745.884 200.583 745.551 199.75C745.217 198.75 744.967 198.083 744.801 197.75C742.967 192.917 741.634 187.917 740.801 182.75C739.967 177.417 739.384 172.083 739.051 166.75C738.717 160.917 738.467 155.083 738.301 149.25C738.134 143.417 737.967 137.583 737.801 131.75C737.134 131.417 736.384 131.083 735.551 130.75C734.884 130.417 734.301 129.917 733.801 129.25C731.801 127.75 731.467 125.75 732.801 123.25C733.467 122.417 734.217 121.75 735.051 121.25C736.051 120.75 736.967 120.333 737.801 120C737.801 118.5 737.801 115.417 737.801 110.75C737.967 105.917 738.051 100.833 738.051 95.5C738.051 90 738.051 84.9167 738.051 80.25C738.217 75.4167 738.301 72.25 738.301 70.75C736.801 69.25 736.551 67.5833 737.551 65.75C732.217 68.0833 726.884 70.6667 721.551 73.5C716.384 76.1667 711.551 79.4167 707.051 83.25C705.051 84.75 703.717 86.3333 703.051 88C703.717 88.5 704.384 88.8333 705.051 89C705.884 89.1667 706.634 89.5 707.301 90C708.634 91.1667 708.967 92.5833 708.301 94.25C707.801 95.9167 706.634 96.75 704.801 96.75C703.801 96.75 702.467 96.3333 700.801 95.5C699.134 94.5 697.967 93.5833 697.301 92.75C694.967 89.75 694.884 86.6667 697.051 83.5C699.217 80.3333 701.884 77.5833 705.051 75.25C710.884 71.0833 716.967 67.4167 723.301 64.25C729.634 61.0833 736.134 58.0833 742.801 55.25C748.467 52.9167 754.217 50.9167 760.051 49.25C766.051 47.5833 772.051 46.5 778.051 46C782.051 45.6667 786.134 45.5833 790.301 45.75C794.467 45.9167 798.384 46.9167 802.051 48.75C805.384 50.0833 807.967 52.1667 809.801 55C811.634 58 812.217 61.25 811.551 64.75C811.051 68.25 809.801 71.75 807.801 75.25C805.801 78.75 803.301 82.0833 800.301 85.25C797.467 88.4167 794.801 91.25 792.301 93.75C785.467 100.25 778.051 106 770.051 111C762.217 116 754.051 120.5 745.551 124.5C745.384 124.667 745.301 125.167 745.301 126C745.301 126.667 745.384 127.083 745.551 127.25C756.551 132.583 767.551 137.917 778.551 143.25C789.551 148.583 800.551 153.917 811.551 159.25C811.884 159.583 812.967 160.167 814.801 161C816.801 161.667 818.051 162.167 818.551 162.5C820.384 163.667 820.884 165.25 820.051 167.25C819.384 169.083 818.051 169.833 816.051 169.5C815.551 169.5 814.634 169.25 813.301 168.75C812.134 168.083 811.384 167.667 811.051 167.5C800.051 162.167 789.134 156.833 778.301 151.5C767.467 146.167 756.551 140.833 745.551 135.5C745.551 141.833 745.634 148.167 745.801 154.5C745.967 160.667 746.384 166.917 747.051 173.25C747.551 177.583 748.217 181.833 749.051 186C750.051 190.167 751.384 194.25 753.051 198.25ZM745.551 70.25C745.717 71.75 745.801 74.75 745.801 79.25C745.801 83.5833 745.717 88.25 745.551 93.25C745.551 98.25 745.467 103 745.301 107.5C745.301 111.833 745.301 114.75 745.301 116.25C754.967 111.583 764.217 106.167 773.051 100C782.051 93.6667 789.967 86.3333 796.801 78C799.467 74.8333 801.467 71.6667 802.801 68.5C803.301 67.1667 803.717 65.8333 804.051 64.5C804.384 63.1667 804.384 61.8333 804.051 60.5C803.717 59.1667 802.967 58.0833 801.801 57.25C800.634 56.25 799.217 55.5 797.551 55C795.884 54.3333 794.134 53.9167 792.301 53.75C790.634 53.4167 789.051 53.25 787.551 53.25C779.551 52.9167 771.634 53.8333 763.801 56C756.134 58.1667 748.634 60.9167 741.301 64.25C740.967 64.4167 741.051 64.5 741.551 64.5C742.051 64.3333 742.467 64.3333 742.801 64.5C743.801 64.8333 744.467 65.5833 744.801 66.75C745.301 67.9167 745.551 69.0833 745.551 70.25ZM840.684 174C838.684 174.667 836.767 174.583 834.934 173.75C833.1 172.917 831.6 171.583 830.434 169.75C829.6 168.083 829.017 166.333 828.684 164.5C828.35 162.667 828.017 160.833 827.684 159C827.35 156.167 827.184 153.333 827.184 150.5C827.35 147.667 827.6 144.833 827.934 142C828.1 140.667 828.434 138.833 828.934 136.5C829.434 134.167 830.017 131.75 830.684 129.25C831.517 126.75 832.434 124.5 833.434 122.5C834.434 120.333 835.434 118.75 836.434 117.75C837.6 116.417 839.1 115.833 840.934 116C842.767 116 844.35 116.583 845.684 117.75C848.017 118.583 850.267 119.667 852.434 121C854.6 122.167 856.517 123.667 858.184 125.5C863.35 131.833 865.184 138.917 863.684 146.75C863.184 149.25 862.1 152 860.434 155C858.934 157.833 857.1 160.583 854.934 163.25C852.767 165.75 850.434 168 847.934 170C845.434 172 843.017 173.333 840.684 174ZM837.934 166.75C838.934 167.083 840.1 166.75 841.434 165.75C842.934 164.583 844.1 163.583 844.934 162.75C847.434 160.583 849.684 158.083 851.684 155.25C853.684 152.417 855.1 149.5 855.934 146.5C856.767 143.5 856.934 140.583 856.434 137.75C855.934 134.75 854.434 132.083 851.934 129.75C850.434 128.417 848.684 127.333 846.684 126.5C844.85 125.5 843.017 124.667 841.184 124C839.35 127.667 837.934 131.5 836.934 135.5C836.1 139.5 835.517 143.5 835.184 147.5C834.85 150.167 834.684 152.917 834.684 155.75C834.85 158.417 835.35 161.083 836.184 163.75C836.184 164.25 836.35 164.833 836.684 165.5C837.017 166.167 837.434 166.583 837.934 166.75ZM901.652 142.75C901.986 145.25 901.402 147.083 899.902 148.25C898.402 149.417 896.486 150.167 894.152 150.5C891.819 150.667 889.236 150.583 886.402 150.25C883.569 149.917 880.902 149.5 878.402 149C877.236 148.667 875.652 148.25 873.652 147.75C871.652 147.25 870.319 146.5 869.652 145.5C868.819 144.167 868.819 142.833 869.652 141.5C870.652 140.167 871.986 139.667 873.652 140C873.986 140.167 874.319 140.333 874.652 140.5C874.986 140.667 875.402 140.75 875.902 140.75C878.902 141.583 881.902 142.333 884.902 143C888.069 143.5 891.152 143.417 894.152 142.75C894.152 142.417 893.902 141.583 893.402 140.25C892.902 138.917 892.569 138 892.402 137.5C890.402 133.167 888.402 128.917 886.402 124.75C884.402 120.583 882.652 116.333 881.152 112C879.986 108.833 879.402 105.917 879.402 103.25C879.236 101.083 879.569 98.9167 880.402 96.75C881.402 94.5833 882.819 92.8333 884.652 91.5C885.986 90.6667 887.486 90.1667 889.152 90C890.819 89.6667 892.402 89.6667 893.902 90C895.236 90.1667 896.486 90.5 897.652 91C898.986 91.5 900.319 92 901.652 92.5C902.652 93 903.236 93.75 903.402 94.75C903.736 95.75 903.736 96.6667 903.402 97.5C903.069 98.3333 902.486 99 901.652 99.5C900.819 99.8333 899.819 99.8333 898.652 99.5C898.319 99.3333 897.569 99 896.402 98.5C895.236 98 894.486 97.6667 894.152 97.5C893.152 97.1667 891.986 97.0833 890.652 97.25C889.319 97.4167 888.402 98 887.902 99C887.069 100.333 886.736 101.917 886.902 103.75C887.069 105.583 887.402 107.333 887.902 109C889.569 114 891.569 118.833 893.902 123.5C896.402 128.167 898.652 132.917 900.652 137.75C900.986 138.583 901.236 139.417 901.402 140.25C901.569 141.083 901.652 141.917 901.652 142.75ZM917.953 167.25C915.953 168.083 914.036 168 912.203 167C910.37 166 909.286 164.417 908.953 162.25C908.62 160.25 908.953 157.5 909.953 154C910.953 150.333 912.203 146.583 913.703 142.75C915.203 138.75 916.703 135 918.203 131.5C919.87 128 921.12 125.333 921.953 123.5C923.62 120 925.62 116.417 927.953 112.75C929.286 110.917 930.87 109.25 932.703 107.75C934.536 106.083 936.62 105 938.953 104.5C940.286 104.167 942.036 104.25 944.203 104.75C946.536 105.083 948.12 105.833 948.953 107C950.286 108.5 950.37 110.083 949.203 111.75C948.203 113.25 946.786 113.667 944.953 113C944.786 113 944.37 112.833 943.703 112.5C943.203 112.167 942.87 111.917 942.703 111.75C940.87 110.917 939.036 111.417 937.203 113.25C935.536 115.083 934.203 116.917 933.203 118.75C932.203 120.417 930.786 123.167 928.953 127C927.12 130.667 925.286 134.667 923.453 139C921.786 143.167 920.203 147.167 918.703 151C917.37 154.833 916.62 157.75 916.453 159.75C917.12 159.25 917.703 158.75 918.203 158.25C918.703 157.583 919.203 157 919.703 156.5C922.036 153.667 924.12 150.833 925.953 148C927.786 145 929.62 142 931.453 139C931.953 138.167 932.786 136.667 933.953 134.5C935.286 132.333 936.703 130 938.203 127.5C939.703 125 941.12 122.667 942.453 120.5C943.786 118.167 944.703 116.667 945.203 116C946.37 114.5 947.786 113.5 949.453 113C951.12 112.5 952.62 113 953.953 114.5C955.12 115.833 955.786 117.417 955.953 119.25C956.12 120.917 956.286 122.583 956.453 124.25C956.953 127.75 957.286 131.25 957.453 134.75C957.786 138.083 958.37 141.417 959.203 144.75C959.703 147.083 960.37 149.417 961.203 151.75C962.203 153.917 963.12 156.083 963.953 158.25C964.453 159.25 964.536 160.167 964.203 161C963.87 161.833 963.286 162.5 962.453 163C961.786 163.5 960.953 163.75 959.953 163.75C959.12 163.583 958.37 163.083 957.703 162.25C957.37 161.75 956.953 160.917 956.453 159.75C955.953 158.583 955.453 157.333 954.953 156C954.453 154.5 953.953 153.167 953.453 152C953.12 150.667 952.87 149.75 952.703 149.25C951.37 145.083 950.536 140.917 950.203 136.75C949.87 132.583 949.453 128.333 948.953 124C945.12 130.333 941.37 136.667 937.703 143C934.203 149.333 930.12 155.417 925.453 161.25C924.453 162.583 923.286 163.833 921.953 165C920.786 166 919.453 166.75 917.953 167.25Z" fill="#323232"/>
</svg>
